M48
; DRILL file {KiCad 9.0.2} date 2025-07-23T09:50:42+0200
; FORMAT={-:-/ absolute / metric / decimal}
; #@! TF.CreationDate,2025-07-23T09:50:42+02:00
; #@! TF.GenerationSoftware,Kicad,Pcbnew,9.0.2
; #@! TF.FileFunction,Plated,1,4,PTH
FMAT,2
METRIC
; #@! TA.AperFunction,Plated,PTH,ComponentDrill
T1C0.200
; #@! TA.AperFunction,Plated,PTH,ComponentDrill
T2C0.250
; #@! TA.AperFunction,Plated,PTH,ViaDrill
T3C0.300
; #@! TA.AperFunction,Plated,PTH,ComponentDrill
T4C0.600
; #@! TA.AperFunction,Plated,PTH,ComponentDrill
T5C1.000
; #@! TA.AperFunction,Plated,PTH,ComponentDrill
T6C1.143
; #@! TA.AperFunction,Plated,PTH,ComponentDrill
T7C3.200
%
G90
G05
T1
X139.6Y-81.56
X139.6Y-82.96
X140.3Y-80.86
X140.3Y-82.26
X140.3Y-83.66
X141.0Y-81.56
X141.0Y-82.96
X141.7Y-80.86
X141.7Y-82.26
X141.7Y-83.66
X142.4Y-81.56
X142.4Y-82.96
T2
X146.75Y-111.45
X147.75Y-111.45
T3
X123.5Y-73.9
X123.5Y-77.1
X123.5Y-83.4
X123.5Y-86.8
X123.5Y-90.1
X123.5Y-103.8
X123.5Y-112.3
X123.6Y-126.0
X124.0Y-74.55
X124.0Y-76.45
X124.226Y-104.826
X124.8Y-102.9
X126.0Y-106.7
X126.1Y-102.8
X126.4Y-98.4
X126.5Y-102.0
X126.8Y-100.4
X127.1Y-73.9
X127.1Y-75.7
X127.1Y-77.1
X127.3Y-104.6
X129.3Y-99.0
X129.8Y-76.4
X129.8Y-87.7
X129.8Y-93.3
X129.9Y-75.2
X129.9Y-97.401
X130.0Y-73.8
X130.3Y-113.075
X130.6Y-81.7
X130.824Y-97.376
X131.0Y-81.0
X131.3Y-126.0
X131.4Y-122.2
X131.5Y-77.4
X131.5Y-111.0
X131.6Y-109.6
X132.0Y-83.43
X132.0Y-85.0
X132.05Y-88.85
X132.2Y-73.9
X132.2Y-75.2
X132.4Y-76.5
X132.4Y-81.6
X132.4Y-84.1
X132.5Y-78.0
X132.5Y-80.3
X132.5Y-85.6
X132.5Y-88.0
X132.5Y-115.0
X132.6Y-89.5
X132.7Y-93.8
X133.3Y-114.8
X134.0Y-99.6
X134.0Y-113.075
X134.1Y-119.9
X134.2Y-101.0
X134.2Y-108.2
X134.3Y-93.7
X134.3Y-114.5
X134.7Y-123.6
X134.9Y-83.8
X134.9Y-92.9
X135.0Y-75.7
X135.0Y-115.0
X135.1Y-93.7
X135.4Y-73.9
X135.4Y-97.4
X135.9Y-90.6
X136.7Y-109.6
X136.7Y-111.0
X137.5Y-97.4
X137.5Y-115.0
X137.9Y-113.075
X138.1Y-94.0
X138.3Y-99.5
X138.3Y-122.0
X138.4Y-125.9
X139.2Y-116.6
X139.2Y-118.1
X139.4Y-119.9
X141.1Y-116.6
X141.1Y-118.1
X141.7Y-123.7
X142.5Y-103.625
X142.9Y-106.4
X142.9Y-108.3
X143.0Y-114.1
X143.0Y-116.9
X143.3Y-107.4
X143.4Y-119.2
X143.4Y-121.1
X143.6Y-97.0
X143.7Y-99.3
X143.7Y-106.4
X143.7Y-108.3
X143.8Y-115.5
X144.3Y-104.7
X144.7Y-114.1
X144.7Y-116.9
X145.0Y-121.7
X145.2Y-103.625
X145.3Y-97.8
X145.3Y-124.3
X145.4Y-104.7
X145.4Y-120.2
X145.5Y-122.3
X145.7Y-94.4
X146.1Y-99.3
X146.3Y-109.6
X146.4Y-97.1
X147.1Y-126.1
X147.2Y-116.9
X147.2Y-117.8
X147.3Y-119.3
X147.5Y-104.2
X147.7Y-109.6
X147.8Y-105.6
X148.0Y-103.525
X148.0Y-116.9
X148.1Y-124.8
X148.2Y-104.9
X148.2Y-119.85
X148.7Y-93.5
X148.8Y-94.8
X148.8Y-117.1
X148.9Y-99.3
X149.4Y-96.8
X149.5Y-118.9
X149.7Y-73.8
X149.8Y-104.4
X149.9Y-111.7
X149.9Y-117.1
X150.0Y-75.7
X150.0Y-116.2
X150.6Y-105.5
X150.615Y-102.95
X150.615Y-104.7
X150.7Y-107.0
X150.901Y-111.65
X151.1Y-122.9
X151.1Y-124.6
X151.4Y-96.7
X151.651Y-109.6
X151.8Y-118.0
X151.8Y-119.9
X151.9Y-99.2
X152.2Y-92.0
X152.4Y-111.8
X152.4Y-114.5
X152.5Y-76.5
X152.5Y-84.8
X152.5Y-98.6
X152.6Y-90.7
X152.7Y-85.7
X152.8Y-81.3
X153.7Y-101.9
X153.7Y-121.2
X153.8Y-74.101
X153.8Y-114.7
X153.9Y-76.2
X154.269Y-111.931
X154.5Y-94.3
X154.5Y-105.9
X154.9Y-107.9
X155.0Y-83.7
X155.1Y-117.6
X155.2Y-79.8
X155.4Y-105.8
X155.4Y-114.3
X155.6Y-98.6
X155.7Y-86.4
X156.0Y-94.7
X156.2Y-110.4
X156.2Y-115.177
X156.2Y-119.0
X156.3Y-99.0
X156.6Y-109.578
X156.7Y-102.2
X156.7Y-115.927
X156.8Y-126.0
X156.9Y-92.9
X156.9Y-122.3
X157.0Y-94.7
X157.0Y-107.6
X157.3Y-97.5
X157.5Y-75.9
X157.5Y-101.0
X157.8Y-105.9
X158.1Y-102.2
X158.2Y-105.2
X158.25Y-89.65
X158.3Y-82.9
X158.6Y-73.9
X158.6Y-106.3
X158.6Y-107.1
X159.3Y-105.4
X159.9Y-91.4
X160.0Y-100.0
X160.4Y-82.9
X161.2Y-98.8
X161.227Y-90.122
X161.6Y-82.888
X161.9Y-99.4
X162.6Y-83.0
X162.9Y-85.9
X163.1Y-84.5
X163.4Y-86.8
X164.4Y-90.8
X164.8Y-74.0
X164.8Y-125.5
X164.899Y-82.0
X164.9Y-95.2
X164.9Y-101.3
X164.9Y-105.4
T5
X124.3Y-82.0
X124.3Y-88.5
X126.0Y-110.19
X126.0Y-112.73
X126.0Y-115.27
X126.0Y-117.81
X128.412Y-100.25
X128.412Y-106.75
X128.8Y-82.0
X128.8Y-88.5
X132.912Y-100.25
X132.912Y-106.75
X134.56Y-96.0
X135.387Y-100.2
X135.387Y-106.7
X137.1Y-96.0
X139.64Y-96.0
X139.887Y-100.2
X139.887Y-106.7
X142.18Y-96.0
T6
X161.351Y-75.605
X161.351Y-79.105
X161.451Y-120.587
X161.451Y-124.087
T7
X127.0Y-95.0
X127.0Y-123.0
X161.5Y-95.0
T4
X157.87Y-108.457G85X158.97Y-108.457
G05
X157.87Y-117.097G85X158.97Y-117.097
G05
X162.2Y-108.457G85X163.0Y-108.457
G05
X162.2Y-117.097G85X163.0Y-117.097
G05
M30
