G04 #@! TF.GenerationSoftware,KiCad,Pcbnew,9.0.2*
G04 #@! TF.CreationDate,2025-07-23T09:57:04+02:00*
G04 #@! TF.ProjectId,Capteur_courant_IoT,43617074-6575-4725-9f63-6f7572616e74,rev?*
G04 #@! TF.SameCoordinates,Original*
G04 #@! TF.FileFunction,Copper,L2,Inr*
G04 #@! TF.FilePolarity,Positive*
%FSLAX46Y46*%
G04 Gerber Fmt 4.6, Leading zero omitted, Abs format (unit mm)*
G04 Created by KiCad (PCBNEW 9.0.2) date 2025-07-23 09:57:04*
%MOMM*%
%LPD*%
G01*
G04 APERTURE LIST*
G04 #@! TA.AperFunction,ComponentPad*
%ADD10C,5.600000*%
G04 #@! TD*
G04 #@! TA.AperFunction,ComponentPad*
%ADD11R,1.700000X1.700000*%
G04 #@! TD*
G04 #@! TA.AperFunction,ComponentPad*
%ADD12C,1.700000*%
G04 #@! TD*
G04 #@! TA.AperFunction,ComponentPad*
%ADD13R,1.508000X1.508000*%
G04 #@! TD*
G04 #@! TA.AperFunction,ComponentPad*
%ADD14C,1.508000*%
G04 #@! TD*
G04 #@! TA.AperFunction,ComponentPad*
%ADD15C,1.651000*%
G04 #@! TD*
G04 #@! TA.AperFunction,HeatsinkPad*
%ADD16C,0.600000*%
G04 #@! TD*
G04 #@! TA.AperFunction,ComponentPad*
%ADD17O,2.100000X1.000000*%
G04 #@! TD*
G04 #@! TA.AperFunction,ComponentPad*
%ADD18O,1.800000X1.000000*%
G04 #@! TD*
G04 #@! TA.AperFunction,ViaPad*
%ADD19C,0.600000*%
G04 #@! TD*
G04 APERTURE END LIST*
D10*
X127000000Y-95000000D03*
X127000000Y-123000000D03*
D11*
X142180000Y-96000000D03*
D12*
X139640000Y-96000000D03*
X137100000Y-96000000D03*
X134560000Y-96000000D03*
D13*
X128412500Y-106750000D03*
D14*
X128412500Y-100250000D03*
X132912500Y-106750000D03*
X132912500Y-100250000D03*
D10*
X161500000Y-95000000D03*
D15*
X161451200Y-120587400D03*
X161451200Y-124087402D03*
D16*
X146750000Y-111450000D03*
X147750000Y-111450000D03*
D13*
X139887500Y-100200000D03*
D14*
X139887500Y-106700000D03*
X135387500Y-100200000D03*
X135387500Y-106700000D03*
D13*
X124300000Y-88500000D03*
D14*
X124300000Y-82000000D03*
X128800000Y-88500000D03*
X128800000Y-82000000D03*
D15*
X161351200Y-75605096D03*
X161351200Y-79105098D03*
D16*
X139600000Y-81560000D03*
X139600000Y-82960000D03*
X140300000Y-80860000D03*
X140300000Y-82260000D03*
X140300000Y-83660000D03*
X141000000Y-81560000D03*
X141000000Y-82960000D03*
X141700000Y-80860000D03*
X141700000Y-82260000D03*
X141700000Y-83660000D03*
X142400000Y-81560000D03*
X142400000Y-82960000D03*
D11*
X126000000Y-110190000D03*
D12*
X126000000Y-112730000D03*
X126000000Y-115270000D03*
X126000000Y-117810000D03*
D17*
X158420000Y-117097500D03*
X158420000Y-108457500D03*
D18*
X162600000Y-117097500D03*
X162600000Y-108457500D03*
D19*
X155100000Y-117600000D03*
X123500000Y-77100000D03*
X164400000Y-90800000D03*
X132500000Y-88000000D03*
X131300000Y-126000000D03*
X132500000Y-80300000D03*
X123500000Y-112300000D03*
X132600000Y-89500000D03*
X131500000Y-77400000D03*
X162600000Y-83000000D03*
X147200000Y-117800000D03*
X134000000Y-99600000D03*
X145700000Y-94400000D03*
X134900000Y-83800000D03*
X141700000Y-123700000D03*
X132700000Y-93800000D03*
X127100000Y-77100000D03*
X156700000Y-115927500D03*
X163400000Y-86800000D03*
X155600000Y-98600000D03*
X141100000Y-118100000D03*
X162900000Y-85900000D03*
X138300000Y-99500000D03*
X164900000Y-101300000D03*
X157800000Y-105900000D03*
X156600000Y-109577500D03*
X133300000Y-114800000D03*
X153800000Y-114700000D03*
X160400000Y-82900000D03*
X134900000Y-92900000D03*
X153700000Y-101900000D03*
X147300000Y-119300000D03*
X154269212Y-111930788D03*
X158300000Y-82900000D03*
X126800000Y-100400000D03*
X134300000Y-114500000D03*
X152400000Y-114500000D03*
X132200000Y-73900000D03*
X156900000Y-122300000D03*
X164900000Y-105400000D03*
X126000000Y-106700000D03*
X148100000Y-124800000D03*
X132400000Y-76500000D03*
X151800000Y-119900000D03*
X152200000Y-92000000D03*
X136700000Y-111000000D03*
X132400000Y-84100000D03*
X138400000Y-125900000D03*
X129800000Y-87700000D03*
X138100000Y-94000000D03*
X126500000Y-102000000D03*
X131600000Y-109600000D03*
X127100000Y-73900000D03*
X153800000Y-74101000D03*
X156000000Y-94700000D03*
X124000000Y-74550000D03*
X143400000Y-121100000D03*
X151100000Y-122900000D03*
X139400000Y-119900000D03*
X143400000Y-119200000D03*
X136700000Y-109600000D03*
X132200000Y-75200000D03*
X149500000Y-118900000D03*
X131500000Y-111000000D03*
X132500000Y-78000000D03*
X141100000Y-116600000D03*
X154900000Y-107900000D03*
X164900000Y-95200000D03*
X129800000Y-93300000D03*
X131400000Y-122200000D03*
X148700000Y-93500000D03*
X135400000Y-73900000D03*
X148200000Y-104900000D03*
X158100000Y-102200000D03*
X134100000Y-119900000D03*
X149900000Y-117100000D03*
X134700000Y-123600000D03*
X152400000Y-111800000D03*
X123500000Y-73900000D03*
X149400000Y-96800000D03*
X164800000Y-125500000D03*
X151100000Y-124600000D03*
X147500000Y-104200000D03*
X158600000Y-73900000D03*
X127100000Y-75700000D03*
X164899000Y-82000000D03*
X157500000Y-75900000D03*
X152500000Y-76500000D03*
X156800000Y-126000000D03*
X156200000Y-119000000D03*
X145400000Y-104700000D03*
X147100000Y-126100000D03*
X135400000Y-97400000D03*
X126400000Y-98400000D03*
X156700000Y-102200000D03*
X151400000Y-96700000D03*
X129800000Y-76400000D03*
X145300000Y-124300000D03*
X134200000Y-108200000D03*
X152700000Y-85700000D03*
X147200000Y-116900000D03*
X123600000Y-126000000D03*
X135900000Y-90600000D03*
X123500000Y-103800000D03*
X132400000Y-81600000D03*
X143000000Y-116900000D03*
X123500000Y-86800000D03*
X129300000Y-99000000D03*
X157000000Y-107600000D03*
X154500000Y-105900000D03*
X145000000Y-121700000D03*
X157300000Y-97500000D03*
X144300000Y-104700000D03*
X139200000Y-118100000D03*
X139200000Y-116600000D03*
X135000000Y-75700000D03*
X153700000Y-121200000D03*
X155700000Y-86400000D03*
X130300000Y-113075000D03*
X123500000Y-83400000D03*
X157500000Y-101000000D03*
X150615000Y-102950000D03*
X134200000Y-101000000D03*
X150000000Y-116200000D03*
X127300000Y-104600000D03*
X150600000Y-105500000D03*
X148800000Y-94800000D03*
X156900000Y-92900000D03*
X161200000Y-98800000D03*
X145500000Y-122300000D03*
X130600000Y-81700000D03*
X148800000Y-117100000D03*
X152500000Y-98600000D03*
X123500000Y-90100000D03*
X130000000Y-73800000D03*
X157000000Y-94700000D03*
X159300000Y-105400000D03*
X129900000Y-75200000D03*
X163100000Y-84500000D03*
X144700000Y-114100000D03*
X134300000Y-93700000D03*
X154500000Y-94300000D03*
X160000000Y-100000000D03*
X137500000Y-97400000D03*
X145400000Y-120200000D03*
X124800000Y-102900000D03*
X143800000Y-115500000D03*
X149800000Y-104400000D03*
X164800000Y-74000000D03*
X132500000Y-85600000D03*
X152600000Y-90700000D03*
X143000000Y-114100000D03*
X137900000Y-113075000D03*
X149700000Y-73800000D03*
X138300000Y-122000000D03*
X150000000Y-75700000D03*
X144700000Y-116900000D03*
X156200000Y-115177500D03*
X151651000Y-109600000D03*
X156200000Y-110400000D03*
X151800000Y-118000000D03*
X158200000Y-105200000D03*
X143300000Y-107400000D03*
X147700000Y-109600000D03*
X142900000Y-108300000D03*
X143700000Y-106400000D03*
X142900000Y-106400000D03*
X150615000Y-104700000D03*
X158250000Y-89650000D03*
X155400000Y-105800000D03*
X124000000Y-76450000D03*
X143700000Y-108300000D03*
X155400000Y-114300000D03*
X153900000Y-76200000D03*
X150700000Y-107000000D03*
X155200000Y-79800000D03*
X134000000Y-113075000D03*
X145300000Y-97800000D03*
X159900000Y-91400000D03*
X152800000Y-81300000D03*
X161227000Y-90121528D03*
X146400000Y-97100000D03*
X124226144Y-104826144D03*
X155000000Y-83700000D03*
X126100000Y-102800000D03*
X143600000Y-97000000D03*
X156300000Y-99000000D03*
X161900000Y-99400000D03*
X151900000Y-99200000D03*
X148000000Y-116900000D03*
X148200000Y-119850000D03*
X158600000Y-107100000D03*
X150901000Y-111650000D03*
X158600000Y-106300000D03*
X149900000Y-111700000D03*
X130824265Y-97375735D03*
X143700000Y-99300000D03*
X132000000Y-83430000D03*
X132050000Y-88850000D03*
X148900000Y-99300000D03*
X129900000Y-97401000D03*
X132000000Y-85000000D03*
X146100000Y-99300000D03*
X152500000Y-84800000D03*
X161600000Y-82887500D03*
X146300000Y-109600000D03*
X147800000Y-105600000D03*
X145200000Y-103625000D03*
X135000000Y-115000000D03*
X132500000Y-115000000D03*
X142500000Y-103625000D03*
X137500000Y-115000000D03*
X148000000Y-103525000D03*
X135100000Y-93700000D03*
X131000000Y-81000000D03*
G04 #@! TA.AperFunction,Conductor*
G36*
X165222539Y-73519685D02*
G01*
X165268294Y-73572489D01*
X165279500Y-73624000D01*
X165279500Y-126275500D01*
X165259815Y-126342539D01*
X165207011Y-126388294D01*
X165155500Y-126399500D01*
X123304500Y-126399500D01*
X123237461Y-126379815D01*
X123191706Y-126327011D01*
X123180500Y-126275500D01*
X123180500Y-123983044D01*
X160125200Y-123983044D01*
X160125200Y-124191759D01*
X160157850Y-124397908D01*
X160222349Y-124596413D01*
X160317103Y-124782377D01*
X160439784Y-124951233D01*
X160587369Y-125098818D01*
X160756225Y-125221499D01*
X160844088Y-125266267D01*
X160942188Y-125316252D01*
X160942190Y-125316252D01*
X160942193Y-125316254D01*
X161048594Y-125350826D01*
X161140693Y-125380751D01*
X161243768Y-125397076D01*
X161346842Y-125413402D01*
X161346843Y-125413402D01*
X161555557Y-125413402D01*
X161555558Y-125413402D01*
X161761706Y-125380751D01*
X161960207Y-125316254D01*
X162146175Y-125221499D01*
X162315031Y-125098818D01*
X162462616Y-124951233D01*
X162585297Y-124782377D01*
X162680052Y-124596409D01*
X162744549Y-124397908D01*
X162777200Y-124191760D01*
X162777200Y-123983044D01*
X162744549Y-123776896D01*
X162680052Y-123578395D01*
X162680050Y-123578392D01*
X162680050Y-123578390D01*
X162585296Y-123392426D01*
X162462616Y-123223571D01*
X162315031Y-123075986D01*
X162146175Y-122953305D01*
X161960211Y-122858551D01*
X161761706Y-122794052D01*
X161583743Y-122765866D01*
X161555558Y-122761402D01*
X161346842Y-122761402D01*
X161322046Y-122765329D01*
X161140693Y-122794052D01*
X160942188Y-122858551D01*
X160756224Y-122953305D01*
X160587366Y-123075988D01*
X160439786Y-123223568D01*
X160317103Y-123392426D01*
X160222349Y-123578390D01*
X160157850Y-123776895D01*
X160125200Y-123983044D01*
X123180500Y-123983044D01*
X123180500Y-119771153D01*
X147399500Y-119771153D01*
X147399500Y-119928846D01*
X147430261Y-120083489D01*
X147430264Y-120083501D01*
X147490602Y-120229172D01*
X147490609Y-120229185D01*
X147578210Y-120360288D01*
X147578213Y-120360292D01*
X147689707Y-120471786D01*
X147689711Y-120471789D01*
X147820814Y-120559390D01*
X147820827Y-120559397D01*
X147966498Y-120619735D01*
X147966503Y-120619737D01*
X148121153Y-120650499D01*
X148121156Y-120650500D01*
X148121158Y-120650500D01*
X148278844Y-120650500D01*
X148278845Y-120650499D01*
X148433497Y-120619737D01*
X148579179Y-120559394D01*
X148693398Y-120483075D01*
X160125700Y-120483075D01*
X160125700Y-120691724D01*
X160158337Y-120897789D01*
X160222812Y-121096220D01*
X160317530Y-121282114D01*
X160353468Y-121331576D01*
X160909857Y-120775188D01*
X160918647Y-120807991D01*
X160993887Y-120938309D01*
X161100291Y-121044713D01*
X161230609Y-121119953D01*
X161263411Y-121128742D01*
X160707022Y-121685130D01*
X160707022Y-121685131D01*
X160756485Y-121721069D01*
X160942379Y-121815787D01*
X161140810Y-121880262D01*
X161346876Y-121912900D01*
X161555524Y-121912900D01*
X161761589Y-121880262D01*
X161960020Y-121815787D01*
X162145909Y-121721072D01*
X162195376Y-121685130D01*
X161638988Y-121128742D01*
X161671791Y-121119953D01*
X161802109Y-121044713D01*
X161908513Y-120938309D01*
X161983753Y-120807991D01*
X161992542Y-120775188D01*
X162548930Y-121331576D01*
X162584872Y-121282109D01*
X162679587Y-121096220D01*
X162744062Y-120897789D01*
X162776700Y-120691724D01*
X162776700Y-120483075D01*
X162744062Y-120277010D01*
X162679587Y-120078579D01*
X162584869Y-119892685D01*
X162548930Y-119843222D01*
X161992542Y-120399610D01*
X161983753Y-120366809D01*
X161908513Y-120236491D01*
X161802109Y-120130087D01*
X161671791Y-120054847D01*
X161638988Y-120046057D01*
X162195376Y-119489668D01*
X162195376Y-119489667D01*
X162145914Y-119453730D01*
X161960020Y-119359012D01*
X161761589Y-119294537D01*
X161555524Y-119261900D01*
X161346876Y-119261900D01*
X161140810Y-119294537D01*
X160942379Y-119359012D01*
X160756485Y-119453730D01*
X160707022Y-119489668D01*
X160707021Y-119489668D01*
X161263411Y-120046057D01*
X161230609Y-120054847D01*
X161100291Y-120130087D01*
X160993887Y-120236491D01*
X160918647Y-120366809D01*
X160909857Y-120399610D01*
X160353468Y-119843221D01*
X160353468Y-119843222D01*
X160317530Y-119892685D01*
X160222812Y-120078579D01*
X160158337Y-120277010D01*
X160125700Y-120483075D01*
X148693398Y-120483075D01*
X148710289Y-120471789D01*
X148710292Y-120471786D01*
X148791551Y-120390528D01*
X148821786Y-120360292D01*
X148821789Y-120360289D01*
X148909394Y-120229179D01*
X148969737Y-120083497D01*
X149000500Y-119928842D01*
X149000500Y-119771158D01*
X149000500Y-119771155D01*
X149000499Y-119771153D01*
X148969738Y-119616510D01*
X148969737Y-119616503D01*
X148917200Y-119489667D01*
X148909395Y-119470823D01*
X148909390Y-119470814D01*
X148821789Y-119339711D01*
X148821786Y-119339707D01*
X148710292Y-119228213D01*
X148710288Y-119228210D01*
X148579185Y-119140609D01*
X148579172Y-119140602D01*
X148433501Y-119080264D01*
X148433489Y-119080261D01*
X148278845Y-119049500D01*
X148278842Y-119049500D01*
X148121158Y-119049500D01*
X148121155Y-119049500D01*
X147966510Y-119080261D01*
X147966498Y-119080264D01*
X147820827Y-119140602D01*
X147820814Y-119140609D01*
X147689711Y-119228210D01*
X147689707Y-119228213D01*
X147578213Y-119339707D01*
X147578210Y-119339711D01*
X147490609Y-119470814D01*
X147490602Y-119470827D01*
X147430264Y-119616498D01*
X147430261Y-119616510D01*
X147399500Y-119771153D01*
X123180500Y-119771153D01*
X123180500Y-109292135D01*
X124649500Y-109292135D01*
X124649500Y-111087870D01*
X124649501Y-111087876D01*
X124655908Y-111147483D01*
X124706202Y-111282328D01*
X124706206Y-111282335D01*
X124792452Y-111397544D01*
X124792455Y-111397547D01*
X124907664Y-111483793D01*
X124907671Y-111483797D01*
X125039082Y-111532810D01*
X125095016Y-111574681D01*
X125119433Y-111640145D01*
X125104582Y-111708418D01*
X125083431Y-111736673D01*
X124969889Y-111850215D01*
X124844951Y-112022179D01*
X124748444Y-112211585D01*
X124682753Y-112413760D01*
X124673887Y-112469738D01*
X124649500Y-112623713D01*
X124649500Y-112836287D01*
X124682754Y-113046243D01*
X124717716Y-113153846D01*
X124748444Y-113248414D01*
X124844951Y-113437820D01*
X124969890Y-113609786D01*
X125120213Y-113760109D01*
X125292182Y-113885050D01*
X125300946Y-113889516D01*
X125351742Y-113937491D01*
X125368536Y-114005312D01*
X125345998Y-114071447D01*
X125300946Y-114110484D01*
X125292182Y-114114949D01*
X125120213Y-114239890D01*
X124969890Y-114390213D01*
X124844951Y-114562179D01*
X124748444Y-114751585D01*
X124682753Y-114953760D01*
X124659804Y-115098655D01*
X124649500Y-115163713D01*
X124649500Y-115376287D01*
X124682754Y-115586243D01*
X124742375Y-115769738D01*
X124748444Y-115788414D01*
X124844951Y-115977820D01*
X124969890Y-116149786D01*
X125120213Y-116300109D01*
X125292179Y-116425048D01*
X125292181Y-116425049D01*
X125292184Y-116425051D01*
X125301493Y-116429794D01*
X125352290Y-116477766D01*
X125369087Y-116545587D01*
X125346552Y-116611722D01*
X125301505Y-116650760D01*
X125292446Y-116655376D01*
X125292440Y-116655380D01*
X125238282Y-116694727D01*
X125238282Y-116694728D01*
X125870591Y-117327037D01*
X125807007Y-117344075D01*
X125692993Y-117409901D01*
X125599901Y-117502993D01*
X125534075Y-117617007D01*
X125517037Y-117680591D01*
X124884728Y-117048282D01*
X124884727Y-117048282D01*
X124845380Y-117102439D01*
X124748904Y-117291782D01*
X124683242Y-117493869D01*
X124683242Y-117493872D01*
X124650000Y-117703753D01*
X124650000Y-117916246D01*
X124683242Y-118126127D01*
X124683242Y-118126130D01*
X124748904Y-118328217D01*
X124845375Y-118517550D01*
X124884728Y-118571716D01*
X125517037Y-117939408D01*
X125534075Y-118002993D01*
X125599901Y-118117007D01*
X125692993Y-118210099D01*
X125807007Y-118275925D01*
X125870590Y-118292962D01*
X125238282Y-118925269D01*
X125238282Y-118925270D01*
X125292449Y-118964624D01*
X125481782Y-119061095D01*
X125683870Y-119126757D01*
X125893754Y-119160000D01*
X126106246Y-119160000D01*
X126316127Y-119126757D01*
X126316130Y-119126757D01*
X126518217Y-119061095D01*
X126707554Y-118964622D01*
X126761716Y-118925270D01*
X126761717Y-118925270D01*
X126129408Y-118292962D01*
X126192993Y-118275925D01*
X126307007Y-118210099D01*
X126400099Y-118117007D01*
X126465925Y-118002993D01*
X126482962Y-117939408D01*
X127115270Y-118571717D01*
X127115270Y-118571716D01*
X127154622Y-118517554D01*
X127251095Y-118328217D01*
X127316757Y-118126130D01*
X127316757Y-118126127D01*
X127349223Y-117921153D01*
X150999500Y-117921153D01*
X150999500Y-118078846D01*
X151030261Y-118233489D01*
X151030264Y-118233501D01*
X151090602Y-118379172D01*
X151090609Y-118379185D01*
X151178210Y-118510288D01*
X151178213Y-118510292D01*
X151289707Y-118621786D01*
X151289711Y-118621789D01*
X151420814Y-118709390D01*
X151420827Y-118709397D01*
X151566498Y-118769735D01*
X151566503Y-118769737D01*
X151721153Y-118800499D01*
X151721156Y-118800500D01*
X151721158Y-118800500D01*
X151878844Y-118800500D01*
X151878845Y-118800499D01*
X152033497Y-118769737D01*
X152179179Y-118709394D01*
X152310289Y-118621789D01*
X152421789Y-118510289D01*
X152509394Y-118379179D01*
X152569737Y-118233497D01*
X152600500Y-118078842D01*
X152600500Y-117921158D01*
X152600500Y-117921155D01*
X152600499Y-117921153D01*
X152591483Y-117875826D01*
X152569737Y-117766503D01*
X152556674Y-117734966D01*
X152509397Y-117620827D01*
X152509390Y-117620814D01*
X152421789Y-117489711D01*
X152421786Y-117489707D01*
X152310292Y-117378213D01*
X152310288Y-117378210D01*
X152179185Y-117290609D01*
X152179172Y-117290602D01*
X152033501Y-117230264D01*
X152033489Y-117230261D01*
X151878845Y-117199500D01*
X151878842Y-117199500D01*
X151721158Y-117199500D01*
X151721155Y-117199500D01*
X151566510Y-117230261D01*
X151566498Y-117230264D01*
X151420827Y-117290602D01*
X151420814Y-117290609D01*
X151289711Y-117378210D01*
X151289707Y-117378213D01*
X151178213Y-117489707D01*
X151178210Y-117489711D01*
X151090609Y-117620814D01*
X151090602Y-117620827D01*
X151030264Y-117766498D01*
X151030261Y-117766510D01*
X150999500Y-117921153D01*
X127349223Y-117921153D01*
X127350000Y-117916246D01*
X127350000Y-117703753D01*
X127316757Y-117493872D01*
X127316757Y-117493869D01*
X127251095Y-117291782D01*
X127154624Y-117102449D01*
X127115270Y-117048282D01*
X127115269Y-117048282D01*
X126482962Y-117680590D01*
X126465925Y-117617007D01*
X126400099Y-117502993D01*
X126307007Y-117409901D01*
X126192993Y-117344075D01*
X126129409Y-117327037D01*
X126635292Y-116821153D01*
X147199500Y-116821153D01*
X147199500Y-116978846D01*
X147230261Y-117133489D01*
X147230264Y-117133501D01*
X147290602Y-117279172D01*
X147290609Y-117279185D01*
X147378210Y-117410288D01*
X147378213Y-117410292D01*
X147489707Y-117521786D01*
X147489711Y-117521789D01*
X147620814Y-117609390D01*
X147620827Y-117609397D01*
X147766498Y-117669735D01*
X147766503Y-117669737D01*
X147921153Y-117700499D01*
X147921156Y-117700500D01*
X147921158Y-117700500D01*
X148078844Y-117700500D01*
X148078845Y-117700499D01*
X148233497Y-117669737D01*
X148351592Y-117620821D01*
X148379172Y-117609397D01*
X148379172Y-117609396D01*
X148379179Y-117609394D01*
X148510289Y-117521789D01*
X148621789Y-117410289D01*
X148709394Y-117279179D01*
X148769737Y-117133497D01*
X148800500Y-116978842D01*
X148800500Y-116847500D01*
X156900138Y-116847500D01*
X157703012Y-116847500D01*
X157685795Y-116857440D01*
X157629940Y-116913295D01*
X157590444Y-116981704D01*
X157570000Y-117058004D01*
X157570000Y-117136996D01*
X157590444Y-117213296D01*
X157629940Y-117281705D01*
X157685795Y-117337560D01*
X157703012Y-117347500D01*
X156900138Y-117347500D01*
X156908430Y-117389190D01*
X156908430Y-117389192D01*
X156983807Y-117571171D01*
X156983814Y-117571184D01*
X157093248Y-117734962D01*
X157093251Y-117734966D01*
X157232533Y-117874248D01*
X157232537Y-117874251D01*
X157396315Y-117983685D01*
X157396328Y-117983692D01*
X157578306Y-118059069D01*
X157578318Y-118059072D01*
X157771504Y-118097499D01*
X157771508Y-118097500D01*
X158170000Y-118097500D01*
X158170000Y-117397500D01*
X158670000Y-117397500D01*
X158670000Y-118097500D01*
X159068492Y-118097500D01*
X159068495Y-118097499D01*
X159261681Y-118059072D01*
X159261693Y-118059069D01*
X159443671Y-117983692D01*
X159443684Y-117983685D01*
X159607462Y-117874251D01*
X159607466Y-117874248D01*
X159746748Y-117734966D01*
X159746751Y-117734962D01*
X159856185Y-117571184D01*
X159856192Y-117571171D01*
X159931569Y-117389192D01*
X159931569Y-117389190D01*
X159939862Y-117347500D01*
X159136988Y-117347500D01*
X159154205Y-117337560D01*
X159210060Y-117281705D01*
X159249556Y-117213296D01*
X159270000Y-117136996D01*
X159270000Y-117058004D01*
X159249556Y-116981704D01*
X159210060Y-116913295D01*
X159154205Y-116857440D01*
X159136988Y-116847500D01*
X159939862Y-116847500D01*
X161230138Y-116847500D01*
X162033012Y-116847500D01*
X162015795Y-116857440D01*
X161959940Y-116913295D01*
X161920444Y-116981704D01*
X161900000Y-117058004D01*
X161900000Y-117136996D01*
X161920444Y-117213296D01*
X161959940Y-117281705D01*
X162015795Y-117337560D01*
X162033012Y-117347500D01*
X161230138Y-117347500D01*
X161238430Y-117389190D01*
X161238430Y-117389192D01*
X161313807Y-117571171D01*
X161313814Y-117571184D01*
X161423248Y-117734962D01*
X161423251Y-117734966D01*
X161562533Y-117874248D01*
X161562537Y-117874251D01*
X161726315Y-117983685D01*
X161726328Y-117983692D01*
X161908306Y-118059069D01*
X161908318Y-118059072D01*
X162101504Y-118097499D01*
X162101508Y-118097500D01*
X162350000Y-118097500D01*
X162350000Y-117397500D01*
X162850000Y-117397500D01*
X162850000Y-118097500D01*
X163098492Y-118097500D01*
X163098495Y-118097499D01*
X163291681Y-118059072D01*
X163291693Y-118059069D01*
X163473671Y-117983692D01*
X163473684Y-117983685D01*
X163637462Y-117874251D01*
X163637466Y-117874248D01*
X163776748Y-117734966D01*
X163776751Y-117734962D01*
X163886185Y-117571184D01*
X163886192Y-117571171D01*
X163961569Y-117389192D01*
X163961569Y-117389190D01*
X163969862Y-117347500D01*
X163166988Y-117347500D01*
X163184205Y-117337560D01*
X163240060Y-117281705D01*
X163279556Y-117213296D01*
X163300000Y-117136996D01*
X163300000Y-117058004D01*
X163279556Y-116981704D01*
X163240060Y-116913295D01*
X163184205Y-116857440D01*
X163166988Y-116847500D01*
X163969862Y-116847500D01*
X163961569Y-116805809D01*
X163961569Y-116805807D01*
X163886192Y-116623828D01*
X163886185Y-116623815D01*
X163776751Y-116460037D01*
X163776748Y-116460033D01*
X163637466Y-116320751D01*
X163637462Y-116320748D01*
X163473684Y-116211314D01*
X163473671Y-116211307D01*
X163291693Y-116135930D01*
X163291681Y-116135927D01*
X163098495Y-116097500D01*
X162850000Y-116097500D01*
X162850000Y-116797500D01*
X162350000Y-116797500D01*
X162350000Y-116097500D01*
X162101504Y-116097500D01*
X161908318Y-116135927D01*
X161908306Y-116135930D01*
X161726328Y-116211307D01*
X161726315Y-116211314D01*
X161562537Y-116320748D01*
X161562533Y-116320751D01*
X161423251Y-116460033D01*
X161423248Y-116460037D01*
X161313814Y-116623815D01*
X161313807Y-116623828D01*
X161238430Y-116805807D01*
X161238430Y-116805809D01*
X161230138Y-116847500D01*
X159939862Y-116847500D01*
X159931569Y-116805809D01*
X159931569Y-116805807D01*
X159856192Y-116623828D01*
X159856185Y-116623815D01*
X159746751Y-116460037D01*
X159746748Y-116460033D01*
X159607466Y-116320751D01*
X159607462Y-116320748D01*
X159443684Y-116211314D01*
X159443675Y-116211309D01*
X159355801Y-116174911D01*
X159301398Y-116131070D01*
X159279333Y-116064776D01*
X159296612Y-115997077D01*
X159315572Y-115972670D01*
X159316499Y-115971744D01*
X159381733Y-115858756D01*
X159415500Y-115732734D01*
X159415500Y-115602266D01*
X159381733Y-115476244D01*
X159316499Y-115363256D01*
X159224244Y-115271001D01*
X159167750Y-115238384D01*
X159111257Y-115205767D01*
X159048245Y-115188883D01*
X158985234Y-115172000D01*
X158854766Y-115172000D01*
X158728742Y-115205767D01*
X158615756Y-115271001D01*
X158615753Y-115271003D01*
X158523503Y-115363253D01*
X158523501Y-115363256D01*
X158458267Y-115476242D01*
X158424500Y-115602266D01*
X158424500Y-115732733D01*
X158458267Y-115858757D01*
X158474514Y-115886897D01*
X158523501Y-115971744D01*
X158615756Y-116063999D01*
X158615762Y-116064002D01*
X158621484Y-116068393D01*
X158662688Y-116124820D01*
X158670000Y-116166771D01*
X158670000Y-116797500D01*
X158170000Y-116797500D01*
X158170000Y-116097500D01*
X157771504Y-116097500D01*
X157578318Y-116135927D01*
X157578306Y-116135930D01*
X157396328Y-116211307D01*
X157396315Y-116211314D01*
X157232537Y-116320748D01*
X157232533Y-116320751D01*
X157093251Y-116460033D01*
X157093248Y-116460037D01*
X156983814Y-116623815D01*
X156983807Y-116623828D01*
X156908430Y-116805807D01*
X156908430Y-116805809D01*
X156900138Y-116847500D01*
X148800500Y-116847500D01*
X148800500Y-116821158D01*
X148800500Y-116821155D01*
X148800499Y-116821153D01*
X148769738Y-116666510D01*
X148769737Y-116666503D01*
X148765127Y-116655373D01*
X148709397Y-116520827D01*
X148709390Y-116520814D01*
X148621789Y-116389711D01*
X148621786Y-116389707D01*
X148510292Y-116278213D01*
X148510288Y-116278210D01*
X148379185Y-116190609D01*
X148379172Y-116190602D01*
X148233501Y-116130264D01*
X148233489Y-116130261D01*
X148078845Y-116099500D01*
X148078842Y-116099500D01*
X147921158Y-116099500D01*
X147921155Y-116099500D01*
X147766510Y-116130261D01*
X147766498Y-116130264D01*
X147620827Y-116190602D01*
X147620814Y-116190609D01*
X147489711Y-116278210D01*
X147489707Y-116278213D01*
X147378213Y-116389707D01*
X147378210Y-116389711D01*
X147290609Y-116520814D01*
X147290602Y-116520827D01*
X147230264Y-116666498D01*
X147230261Y-116666510D01*
X147199500Y-116821153D01*
X126635292Y-116821153D01*
X126729060Y-116727385D01*
X126761716Y-116694728D01*
X126707547Y-116655373D01*
X126707547Y-116655372D01*
X126698500Y-116650763D01*
X126647706Y-116602788D01*
X126630912Y-116534966D01*
X126653451Y-116468832D01*
X126698508Y-116429793D01*
X126707816Y-116425051D01*
X126851378Y-116320748D01*
X126879786Y-116300109D01*
X126879788Y-116300106D01*
X126879792Y-116300104D01*
X127030104Y-116149792D01*
X127030106Y-116149788D01*
X127030109Y-116149786D01*
X127155048Y-115977820D01*
X127155047Y-115977820D01*
X127155051Y-115977816D01*
X127251557Y-115788412D01*
X127317246Y-115586243D01*
X127350500Y-115376287D01*
X127350500Y-115163713D01*
X127326058Y-115009394D01*
X127317247Y-114953763D01*
X127317246Y-114953760D01*
X127317246Y-114953757D01*
X127306652Y-114921153D01*
X131699500Y-114921153D01*
X131699500Y-115078846D01*
X131730261Y-115233489D01*
X131730264Y-115233501D01*
X131790602Y-115379172D01*
X131790609Y-115379185D01*
X131878210Y-115510288D01*
X131878213Y-115510292D01*
X131989707Y-115621786D01*
X131989711Y-115621789D01*
X132120814Y-115709390D01*
X132120827Y-115709397D01*
X132266498Y-115769735D01*
X132266503Y-115769737D01*
X132415055Y-115799286D01*
X132421153Y-115800499D01*
X132421156Y-115800500D01*
X132421158Y-115800500D01*
X132578844Y-115800500D01*
X132578845Y-115800499D01*
X132733497Y-115769737D01*
X132879179Y-115709394D01*
X133010289Y-115621789D01*
X133121789Y-115510289D01*
X133209394Y-115379179D01*
X133215990Y-115363256D01*
X133223067Y-115346166D01*
X133269737Y-115233497D01*
X133300500Y-115078842D01*
X133300500Y-114921158D01*
X133300500Y-114921155D01*
X133300499Y-114921153D01*
X134199500Y-114921153D01*
X134199500Y-115078846D01*
X134230261Y-115233489D01*
X134230264Y-115233501D01*
X134290602Y-115379172D01*
X134290609Y-115379185D01*
X134378210Y-115510288D01*
X134378213Y-115510292D01*
X134489707Y-115621786D01*
X134489711Y-115621789D01*
X134620814Y-115709390D01*
X134620827Y-115709397D01*
X134766498Y-115769735D01*
X134766503Y-115769737D01*
X134915055Y-115799286D01*
X134921153Y-115800499D01*
X134921156Y-115800500D01*
X134921158Y-115800500D01*
X135078844Y-115800500D01*
X135078845Y-115800499D01*
X135233497Y-115769737D01*
X135379179Y-115709394D01*
X135510289Y-115621789D01*
X135621789Y-115510289D01*
X135709394Y-115379179D01*
X135715990Y-115363256D01*
X135723067Y-115346166D01*
X135769737Y-115233497D01*
X135800500Y-115078842D01*
X135800500Y-114921158D01*
X135800500Y-114921155D01*
X135800499Y-114921153D01*
X136699500Y-114921153D01*
X136699500Y-115078846D01*
X136730261Y-115233489D01*
X136730264Y-115233501D01*
X136790602Y-115379172D01*
X136790609Y-115379185D01*
X136878210Y-115510288D01*
X136878213Y-115510292D01*
X136989707Y-115621786D01*
X136989711Y-115621789D01*
X137120814Y-115709390D01*
X137120827Y-115709397D01*
X137266498Y-115769735D01*
X137266503Y-115769737D01*
X137415055Y-115799286D01*
X137421153Y-115800499D01*
X137421156Y-115800500D01*
X137421158Y-115800500D01*
X137578844Y-115800500D01*
X137578845Y-115800499D01*
X137733497Y-115769737D01*
X137879179Y-115709394D01*
X138010289Y-115621789D01*
X138121789Y-115510289D01*
X138209394Y-115379179D01*
X138215990Y-115363256D01*
X138223067Y-115346166D01*
X138269737Y-115233497D01*
X138300500Y-115078842D01*
X138300500Y-114921158D01*
X138300500Y-114921155D01*
X138300499Y-114921153D01*
X138278447Y-114810292D01*
X138269737Y-114766503D01*
X138233569Y-114679185D01*
X138209397Y-114620827D01*
X138209390Y-114620814D01*
X138121789Y-114489711D01*
X138121786Y-114489707D01*
X138010292Y-114378213D01*
X138010288Y-114378210D01*
X137920429Y-114318168D01*
X137879185Y-114290609D01*
X137879172Y-114290602D01*
X137733501Y-114230264D01*
X137733489Y-114230261D01*
X137687701Y-114221153D01*
X154599500Y-114221153D01*
X154599500Y-114378846D01*
X154630261Y-114533489D01*
X154630264Y-114533501D01*
X154690602Y-114679172D01*
X154690609Y-114679185D01*
X154778210Y-114810288D01*
X154778213Y-114810292D01*
X154889707Y-114921786D01*
X154889711Y-114921789D01*
X155020814Y-115009390D01*
X155020827Y-115009397D01*
X155166498Y-115069735D01*
X155166503Y-115069737D01*
X155276987Y-115091713D01*
X155299691Y-115096230D01*
X155361602Y-115128615D01*
X155396176Y-115189330D01*
X155399500Y-115217847D01*
X155399500Y-115256346D01*
X155430261Y-115410989D01*
X155430264Y-115411001D01*
X155490602Y-115556672D01*
X155490609Y-115556685D01*
X155578210Y-115687788D01*
X155578213Y-115687792D01*
X155689707Y-115799286D01*
X155689711Y-115799289D01*
X155820814Y-115886890D01*
X155820827Y-115886897D01*
X155966498Y-115947235D01*
X155966503Y-115947237D01*
X156120233Y-115977816D01*
X156121153Y-115977999D01*
X156121156Y-115978000D01*
X156121158Y-115978000D01*
X156278844Y-115978000D01*
X156278845Y-115977999D01*
X156433497Y-115947237D01*
X156579179Y-115886894D01*
X156710289Y-115799289D01*
X156821789Y-115687789D01*
X156909394Y-115556679D01*
X156969737Y-115410997D01*
X157000500Y-115256342D01*
X157000500Y-115098658D01*
X157000500Y-115098655D01*
X157000499Y-115098653D01*
X156971678Y-114953763D01*
X156969737Y-114944003D01*
X156960536Y-114921789D01*
X156909397Y-114798327D01*
X156909390Y-114798314D01*
X156821789Y-114667211D01*
X156821786Y-114667207D01*
X156710292Y-114555713D01*
X156710288Y-114555710D01*
X156579185Y-114468109D01*
X156579172Y-114468102D01*
X156433501Y-114407764D01*
X156433491Y-114407761D01*
X156300308Y-114381269D01*
X156238397Y-114348884D01*
X156203823Y-114288168D01*
X156200500Y-114259652D01*
X156200500Y-114221155D01*
X156200499Y-114221153D01*
X156179374Y-114114951D01*
X156169737Y-114066503D01*
X156139992Y-113994692D01*
X156109397Y-113920827D01*
X156109390Y-113920814D01*
X156021789Y-113789711D01*
X156021786Y-113789707D01*
X155910292Y-113678213D01*
X155910288Y-113678210D01*
X155779185Y-113590609D01*
X155779172Y-113590602D01*
X155633501Y-113530264D01*
X155633489Y-113530261D01*
X155478845Y-113499500D01*
X155478842Y-113499500D01*
X155321158Y-113499500D01*
X155321155Y-113499500D01*
X155166510Y-113530261D01*
X155166498Y-113530264D01*
X155020827Y-113590602D01*
X155020814Y-113590609D01*
X154889711Y-113678210D01*
X154889707Y-113678213D01*
X154778213Y-113789707D01*
X154778210Y-113789711D01*
X154690609Y-113920814D01*
X154690602Y-113920827D01*
X154630264Y-114066498D01*
X154630261Y-114066510D01*
X154599500Y-114221153D01*
X137687701Y-114221153D01*
X137578845Y-114199500D01*
X137578842Y-114199500D01*
X137421158Y-114199500D01*
X137421155Y-114199500D01*
X137266510Y-114230261D01*
X137266498Y-114230264D01*
X137120827Y-114290602D01*
X137120814Y-114290609D01*
X136989711Y-114378210D01*
X136989707Y-114378213D01*
X136878213Y-114489707D01*
X136878210Y-114489711D01*
X136790609Y-114620814D01*
X136790602Y-114620827D01*
X136730264Y-114766498D01*
X136730261Y-114766510D01*
X136699500Y-114921153D01*
X135800499Y-114921153D01*
X135778447Y-114810292D01*
X135769737Y-114766503D01*
X135733569Y-114679185D01*
X135709397Y-114620827D01*
X135709390Y-114620814D01*
X135621789Y-114489711D01*
X135621786Y-114489707D01*
X135510292Y-114378213D01*
X135510288Y-114378210D01*
X135379185Y-114290609D01*
X135379172Y-114290602D01*
X135233501Y-114230264D01*
X135233489Y-114230261D01*
X135078845Y-114199500D01*
X135078842Y-114199500D01*
X134921158Y-114199500D01*
X134921155Y-114199500D01*
X134766510Y-114230261D01*
X134766498Y-114230264D01*
X134620827Y-114290602D01*
X134620814Y-114290609D01*
X134489711Y-114378210D01*
X134489707Y-114378213D01*
X134378213Y-114489707D01*
X134378210Y-114489711D01*
X134290609Y-114620814D01*
X134290602Y-114620827D01*
X134230264Y-114766498D01*
X134230261Y-114766510D01*
X134199500Y-114921153D01*
X133300499Y-114921153D01*
X133278447Y-114810292D01*
X133269737Y-114766503D01*
X133233569Y-114679185D01*
X133209397Y-114620827D01*
X133209390Y-114620814D01*
X133121789Y-114489711D01*
X133121786Y-114489707D01*
X133010292Y-114378213D01*
X133010288Y-114378210D01*
X132879185Y-114290609D01*
X132879172Y-114290602D01*
X132733501Y-114230264D01*
X132733489Y-114230261D01*
X132578845Y-114199500D01*
X132578842Y-114199500D01*
X132421158Y-114199500D01*
X132421155Y-114199500D01*
X132266510Y-114230261D01*
X132266498Y-114230264D01*
X132120827Y-114290602D01*
X132120814Y-114290609D01*
X131989711Y-114378210D01*
X131989707Y-114378213D01*
X131878213Y-114489707D01*
X131878210Y-114489711D01*
X131790609Y-114620814D01*
X131790602Y-114620827D01*
X131730264Y-114766498D01*
X131730261Y-114766510D01*
X131699500Y-114921153D01*
X127306652Y-114921153D01*
X127251557Y-114751588D01*
X127155051Y-114562184D01*
X127155049Y-114562181D01*
X127155048Y-114562179D01*
X127030109Y-114390213D01*
X126879786Y-114239890D01*
X126707820Y-114114951D01*
X126707115Y-114114591D01*
X126699054Y-114110485D01*
X126648259Y-114062512D01*
X126631463Y-113994692D01*
X126653999Y-113928556D01*
X126699054Y-113889515D01*
X126707816Y-113885051D01*
X126729789Y-113869086D01*
X126879786Y-113760109D01*
X126879788Y-113760106D01*
X126879792Y-113760104D01*
X127030104Y-113609792D01*
X127030106Y-113609788D01*
X127030109Y-113609786D01*
X127155048Y-113437820D01*
X127155047Y-113437820D01*
X127155051Y-113437816D01*
X127251557Y-113248412D01*
X127317246Y-113046243D01*
X127325180Y-112996153D01*
X133199500Y-112996153D01*
X133199500Y-113153846D01*
X133230261Y-113308489D01*
X133230264Y-113308501D01*
X133290602Y-113454172D01*
X133290609Y-113454185D01*
X133378210Y-113585288D01*
X133378213Y-113585292D01*
X133489707Y-113696786D01*
X133489711Y-113696789D01*
X133620814Y-113784390D01*
X133620827Y-113784397D01*
X133766498Y-113844735D01*
X133766503Y-113844737D01*
X133921153Y-113875499D01*
X133921156Y-113875500D01*
X133921158Y-113875500D01*
X134078844Y-113875500D01*
X134078845Y-113875499D01*
X134233497Y-113844737D01*
X134379179Y-113784394D01*
X134510289Y-113696789D01*
X134621789Y-113585289D01*
X134709394Y-113454179D01*
X134769737Y-113308497D01*
X134800500Y-113153842D01*
X134800500Y-112996158D01*
X134800500Y-112996155D01*
X134800499Y-112996153D01*
X134769738Y-112841510D01*
X134769737Y-112841503D01*
X134769735Y-112841498D01*
X134709397Y-112695827D01*
X134709390Y-112695814D01*
X134621789Y-112564711D01*
X134621786Y-112564707D01*
X134510292Y-112453213D01*
X134510288Y-112453210D01*
X134379185Y-112365609D01*
X134379172Y-112365602D01*
X134233501Y-112305264D01*
X134233489Y-112305261D01*
X134078845Y-112274500D01*
X134078842Y-112274500D01*
X133921158Y-112274500D01*
X133921155Y-112274500D01*
X133766510Y-112305261D01*
X133766498Y-112305264D01*
X133620827Y-112365602D01*
X133620814Y-112365609D01*
X133489711Y-112453210D01*
X133489707Y-112453213D01*
X133378213Y-112564707D01*
X133378210Y-112564711D01*
X133290609Y-112695814D01*
X133290602Y-112695827D01*
X133230264Y-112841498D01*
X133230261Y-112841510D01*
X133199500Y-112996153D01*
X127325180Y-112996153D01*
X127350500Y-112836287D01*
X127350500Y-112623713D01*
X127317246Y-112413757D01*
X127251557Y-112211588D01*
X127228249Y-112165845D01*
X146387706Y-112165845D01*
X146516652Y-112219257D01*
X146516656Y-112219258D01*
X146671202Y-112249999D01*
X146671206Y-112250000D01*
X146828794Y-112250000D01*
X146828797Y-112249999D01*
X146983343Y-112219258D01*
X146983347Y-112219257D01*
X147112293Y-112165845D01*
X147387706Y-112165845D01*
X147516652Y-112219257D01*
X147516656Y-112219258D01*
X147671202Y-112249999D01*
X147671206Y-112250000D01*
X147828794Y-112250000D01*
X147828797Y-112249999D01*
X147983343Y-112219258D01*
X147983347Y-112219257D01*
X148112293Y-112165845D01*
X147750001Y-111803553D01*
X147750000Y-111803553D01*
X147387706Y-112165845D01*
X147112293Y-112165845D01*
X146750001Y-111803553D01*
X146750000Y-111803553D01*
X146387706Y-112165845D01*
X127228249Y-112165845D01*
X127225420Y-112160292D01*
X127184091Y-112079179D01*
X127155051Y-112022184D01*
X127147023Y-112011134D01*
X127030109Y-111850213D01*
X126916569Y-111736673D01*
X126883084Y-111675350D01*
X126888068Y-111605658D01*
X126929940Y-111549725D01*
X126960915Y-111532810D01*
X127092331Y-111483796D01*
X127207546Y-111397546D01*
X127227267Y-111371202D01*
X145950000Y-111371202D01*
X145950000Y-111528797D01*
X145980741Y-111683343D01*
X145980743Y-111683351D01*
X146034153Y-111812293D01*
X146396446Y-111450001D01*
X146396446Y-111449999D01*
X146371583Y-111425136D01*
X146625000Y-111425136D01*
X146625000Y-111474864D01*
X146644030Y-111520807D01*
X146679193Y-111555970D01*
X146725136Y-111575000D01*
X146774864Y-111575000D01*
X146820807Y-111555970D01*
X146855970Y-111520807D01*
X146875000Y-111474864D01*
X146875000Y-111449999D01*
X147103553Y-111449999D01*
X147250000Y-111596446D01*
X147396446Y-111450001D01*
X147396446Y-111450000D01*
X147371582Y-111425136D01*
X147625000Y-111425136D01*
X147625000Y-111474864D01*
X147644030Y-111520807D01*
X147679193Y-111555970D01*
X147725136Y-111575000D01*
X147774864Y-111575000D01*
X147820807Y-111555970D01*
X147855970Y-111520807D01*
X147875000Y-111474864D01*
X147875000Y-111449999D01*
X148103553Y-111449999D01*
X148103553Y-111450001D01*
X148465845Y-111812293D01*
X148519257Y-111683347D01*
X148519258Y-111683343D01*
X148531628Y-111621153D01*
X149099500Y-111621153D01*
X149099500Y-111778846D01*
X149130261Y-111933489D01*
X149130264Y-111933501D01*
X149190602Y-112079172D01*
X149190609Y-112079185D01*
X149278210Y-112210288D01*
X149278213Y-112210292D01*
X149389707Y-112321786D01*
X149389711Y-112321789D01*
X149520814Y-112409390D01*
X149520827Y-112409397D01*
X149620060Y-112450500D01*
X149666503Y-112469737D01*
X149821153Y-112500499D01*
X149821156Y-112500500D01*
X149821158Y-112500500D01*
X149978844Y-112500500D01*
X149978845Y-112500499D01*
X150133497Y-112469737D01*
X150254213Y-112419735D01*
X150279172Y-112409397D01*
X150279172Y-112409396D01*
X150279179Y-112409394D01*
X150279184Y-112409390D01*
X150279187Y-112409389D01*
X150307286Y-112390613D01*
X150369024Y-112349361D01*
X150435699Y-112328483D01*
X150503079Y-112346967D01*
X150506803Y-112349360D01*
X150521812Y-112359388D01*
X150521821Y-112359394D01*
X150521827Y-112359396D01*
X150521828Y-112359397D01*
X150642540Y-112409397D01*
X150667503Y-112419737D01*
X150822153Y-112450499D01*
X150822156Y-112450500D01*
X150822158Y-112450500D01*
X150979844Y-112450500D01*
X150979845Y-112450499D01*
X151134497Y-112419737D01*
X151265182Y-112365606D01*
X151280172Y-112359397D01*
X151280172Y-112359396D01*
X151280179Y-112359394D01*
X151411289Y-112271789D01*
X151522789Y-112160289D01*
X151610394Y-112029179D01*
X151613294Y-112022179D01*
X151670735Y-111883501D01*
X151670737Y-111883497D01*
X151701500Y-111728842D01*
X151701500Y-111571158D01*
X151701500Y-111571155D01*
X151701499Y-111571153D01*
X151695402Y-111540500D01*
X151670737Y-111416503D01*
X151618672Y-111290806D01*
X151610397Y-111270827D01*
X151610390Y-111270814D01*
X151522789Y-111139711D01*
X151522786Y-111139707D01*
X151411292Y-111028213D01*
X151411288Y-111028210D01*
X151280185Y-110940609D01*
X151280172Y-110940602D01*
X151134501Y-110880264D01*
X151134489Y-110880261D01*
X150979845Y-110849500D01*
X150979842Y-110849500D01*
X150822158Y-110849500D01*
X150822155Y-110849500D01*
X150667510Y-110880261D01*
X150667498Y-110880264D01*
X150521827Y-110940602D01*
X150521814Y-110940609D01*
X150431976Y-111000638D01*
X150365298Y-111021516D01*
X150297918Y-111003031D01*
X150294197Y-111000640D01*
X150279185Y-110990610D01*
X150279184Y-110990609D01*
X150279179Y-110990606D01*
X150279175Y-110990604D01*
X150279171Y-110990602D01*
X150133501Y-110930264D01*
X150133489Y-110930261D01*
X149978845Y-110899500D01*
X149978842Y-110899500D01*
X149821158Y-110899500D01*
X149821155Y-110899500D01*
X149666510Y-110930261D01*
X149666498Y-110930264D01*
X149520827Y-110990602D01*
X149520814Y-110990609D01*
X149389711Y-111078210D01*
X149389707Y-111078213D01*
X149278213Y-111189707D01*
X149278210Y-111189711D01*
X149190609Y-111320814D01*
X149190602Y-111320827D01*
X149130264Y-111466498D01*
X149130261Y-111466510D01*
X149099500Y-111621153D01*
X148531628Y-111621153D01*
X148537644Y-111590911D01*
X148537651Y-111590875D01*
X148550000Y-111528790D01*
X148550000Y-111371206D01*
X148549999Y-111371202D01*
X148519258Y-111216656D01*
X148519257Y-111216652D01*
X148465845Y-111087706D01*
X148103553Y-111449999D01*
X147875000Y-111449999D01*
X147875000Y-111425136D01*
X147855970Y-111379193D01*
X147820807Y-111344030D01*
X147774864Y-111325000D01*
X147725136Y-111325000D01*
X147679193Y-111344030D01*
X147644030Y-111379193D01*
X147625000Y-111425136D01*
X147371582Y-111425136D01*
X147250000Y-111303553D01*
X147103553Y-111449999D01*
X146875000Y-111449999D01*
X146875000Y-111425136D01*
X146855970Y-111379193D01*
X146820807Y-111344030D01*
X146774864Y-111325000D01*
X146725136Y-111325000D01*
X146679193Y-111344030D01*
X146644030Y-111379193D01*
X146625000Y-111425136D01*
X146371583Y-111425136D01*
X146034153Y-111087705D01*
X145980743Y-111216648D01*
X145980741Y-111216656D01*
X145950000Y-111371202D01*
X127227267Y-111371202D01*
X127293796Y-111282331D01*
X127344091Y-111147483D01*
X127350500Y-111087873D01*
X127350500Y-110734153D01*
X146387705Y-110734153D01*
X146750000Y-111096446D01*
X146750001Y-111096446D01*
X147112293Y-110734153D01*
X147387705Y-110734153D01*
X147750000Y-111096446D01*
X147750001Y-111096446D01*
X148112293Y-110734153D01*
X147983351Y-110680743D01*
X147983343Y-110680741D01*
X147828797Y-110650000D01*
X147671202Y-110650000D01*
X147516656Y-110680741D01*
X147516648Y-110680743D01*
X147387705Y-110734153D01*
X147112293Y-110734153D01*
X146983351Y-110680743D01*
X146983343Y-110680741D01*
X146828797Y-110650000D01*
X146671202Y-110650000D01*
X146516656Y-110680741D01*
X146516648Y-110680743D01*
X146387705Y-110734153D01*
X127350500Y-110734153D01*
X127350499Y-110166510D01*
X127350499Y-109521153D01*
X145499500Y-109521153D01*
X145499500Y-109678846D01*
X145530261Y-109833489D01*
X145530264Y-109833501D01*
X145590602Y-109979172D01*
X145590609Y-109979185D01*
X145678210Y-110110288D01*
X145678213Y-110110292D01*
X145789707Y-110221786D01*
X145789711Y-110221789D01*
X145920814Y-110309390D01*
X145920827Y-110309397D01*
X146066498Y-110369735D01*
X146066503Y-110369737D01*
X146221153Y-110400499D01*
X146221156Y-110400500D01*
X146221158Y-110400500D01*
X146378844Y-110400500D01*
X146378845Y-110400499D01*
X146533497Y-110369737D01*
X146679179Y-110309394D01*
X146810289Y-110221789D01*
X146840335Y-110191743D01*
X146912319Y-110119760D01*
X146973642Y-110086275D01*
X147043334Y-110091259D01*
X147087681Y-110119760D01*
X147189707Y-110221786D01*
X147189711Y-110221789D01*
X147320814Y-110309390D01*
X147320827Y-110309397D01*
X147466498Y-110369735D01*
X147466503Y-110369737D01*
X147621153Y-110400499D01*
X147621156Y-110400500D01*
X147621158Y-110400500D01*
X147778844Y-110400500D01*
X147778845Y-110400499D01*
X147933497Y-110369737D01*
X148079179Y-110309394D01*
X148210289Y-110221789D01*
X148321789Y-110110289D01*
X148409394Y-109979179D01*
X148469737Y-109833497D01*
X148500500Y-109678842D01*
X148500500Y-109521158D01*
X148500500Y-109521155D01*
X148500499Y-109521153D01*
X150850500Y-109521153D01*
X150850500Y-109678846D01*
X150881261Y-109833489D01*
X150881264Y-109833501D01*
X150941602Y-109979172D01*
X150941609Y-109979185D01*
X151029210Y-110110288D01*
X151029213Y-110110292D01*
X151140707Y-110221786D01*
X151140711Y-110221789D01*
X151271814Y-110309390D01*
X151271827Y-110309397D01*
X151417498Y-110369735D01*
X151417503Y-110369737D01*
X151572153Y-110400499D01*
X151572156Y-110400500D01*
X151572158Y-110400500D01*
X151729844Y-110400500D01*
X151729845Y-110400499D01*
X151884497Y-110369737D01*
X152001790Y-110321153D01*
X155399500Y-110321153D01*
X155399500Y-110478846D01*
X155430261Y-110633489D01*
X155430264Y-110633501D01*
X155490602Y-110779172D01*
X155490609Y-110779185D01*
X155578210Y-110910288D01*
X155578213Y-110910292D01*
X155689707Y-111021786D01*
X155689711Y-111021789D01*
X155820814Y-111109390D01*
X155820827Y-111109397D01*
X155966498Y-111169735D01*
X155966503Y-111169737D01*
X156121153Y-111200499D01*
X156121156Y-111200500D01*
X156121158Y-111200500D01*
X156278844Y-111200500D01*
X156278845Y-111200499D01*
X156433497Y-111169737D01*
X156579179Y-111109394D01*
X156710289Y-111021789D01*
X156821789Y-110910289D01*
X156909394Y-110779179D01*
X156969737Y-110633497D01*
X157000500Y-110478842D01*
X157000500Y-110321158D01*
X157000500Y-110321155D01*
X157000499Y-110321153D01*
X156998159Y-110309390D01*
X156969737Y-110166503D01*
X156933392Y-110078757D01*
X156909397Y-110020827D01*
X156909390Y-110020814D01*
X156821788Y-109889709D01*
X156710292Y-109778213D01*
X156710288Y-109778210D01*
X156579185Y-109690609D01*
X156579172Y-109690602D01*
X156433501Y-109630264D01*
X156433489Y-109630261D01*
X156278845Y-109599500D01*
X156278842Y-109599500D01*
X156121158Y-109599500D01*
X156121155Y-109599500D01*
X155966510Y-109630261D01*
X155966498Y-109630264D01*
X155820827Y-109690602D01*
X155820814Y-109690609D01*
X155689711Y-109778210D01*
X155689707Y-109778213D01*
X155578213Y-109889707D01*
X155578210Y-109889711D01*
X155490609Y-110020814D01*
X155490602Y-110020827D01*
X155430264Y-110166498D01*
X155430261Y-110166510D01*
X155399500Y-110321153D01*
X152001790Y-110321153D01*
X152030179Y-110309394D01*
X152161289Y-110221789D01*
X152272789Y-110110289D01*
X152360394Y-109979179D01*
X152420737Y-109833497D01*
X152451500Y-109678842D01*
X152451500Y-109521158D01*
X152451500Y-109521155D01*
X152451499Y-109521153D01*
X152450288Y-109515066D01*
X152420737Y-109366503D01*
X152420735Y-109366498D01*
X152360397Y-109220827D01*
X152360390Y-109220814D01*
X152272789Y-109089711D01*
X152272786Y-109089707D01*
X152161292Y-108978213D01*
X152161288Y-108978210D01*
X152030185Y-108890609D01*
X152030172Y-108890602D01*
X151884501Y-108830264D01*
X151884489Y-108830261D01*
X151729845Y-108799500D01*
X151729842Y-108799500D01*
X151572158Y-108799500D01*
X151572155Y-108799500D01*
X151417510Y-108830261D01*
X151417498Y-108830264D01*
X151271827Y-108890602D01*
X151271814Y-108890609D01*
X151140711Y-108978210D01*
X151140707Y-108978213D01*
X151029213Y-109089707D01*
X151029210Y-109089711D01*
X150941609Y-109220814D01*
X150941602Y-109220827D01*
X150881264Y-109366498D01*
X150881261Y-109366510D01*
X150850500Y-109521153D01*
X148500499Y-109521153D01*
X148499288Y-109515066D01*
X148469737Y-109366503D01*
X148469735Y-109366498D01*
X148409397Y-109220827D01*
X148409390Y-109220814D01*
X148321789Y-109089711D01*
X148321786Y-109089707D01*
X148210292Y-108978213D01*
X148210288Y-108978210D01*
X148079185Y-108890609D01*
X148079172Y-108890602D01*
X147933501Y-108830264D01*
X147933489Y-108830261D01*
X147778845Y-108799500D01*
X147778842Y-108799500D01*
X147621158Y-108799500D01*
X147621155Y-108799500D01*
X147466510Y-108830261D01*
X147466498Y-108830264D01*
X147320827Y-108890602D01*
X147320814Y-108890609D01*
X147189711Y-108978210D01*
X147189707Y-108978213D01*
X147087681Y-109080240D01*
X147026358Y-109113725D01*
X146956666Y-109108741D01*
X146912319Y-109080240D01*
X146810292Y-108978213D01*
X146810288Y-108978210D01*
X146679185Y-108890609D01*
X146679172Y-108890602D01*
X146533501Y-108830264D01*
X146533489Y-108830261D01*
X146378845Y-108799500D01*
X146378842Y-108799500D01*
X146221158Y-108799500D01*
X146221155Y-108799500D01*
X146066510Y-108830261D01*
X146066498Y-108830264D01*
X145920827Y-108890602D01*
X145920814Y-108890609D01*
X145789711Y-108978210D01*
X145789707Y-108978213D01*
X145678213Y-109089707D01*
X145678210Y-109089711D01*
X145590609Y-109220814D01*
X145590602Y-109220827D01*
X145530264Y-109366498D01*
X145530261Y-109366510D01*
X145499500Y-109521153D01*
X127350499Y-109521153D01*
X127350499Y-109515066D01*
X127350499Y-109292129D01*
X127350498Y-109292123D01*
X127350497Y-109292116D01*
X127344091Y-109232517D01*
X127299784Y-109113725D01*
X127293797Y-109097671D01*
X127293793Y-109097664D01*
X127207547Y-108982455D01*
X127207544Y-108982452D01*
X127092335Y-108896206D01*
X127092328Y-108896202D01*
X126957482Y-108845908D01*
X126957483Y-108845908D01*
X126897883Y-108839501D01*
X126897881Y-108839500D01*
X126897873Y-108839500D01*
X126897864Y-108839500D01*
X125102129Y-108839500D01*
X125102123Y-108839501D01*
X125042516Y-108845908D01*
X124907671Y-108896202D01*
X124907664Y-108896206D01*
X124792455Y-108982452D01*
X124792452Y-108982455D01*
X124706206Y-109097664D01*
X124706202Y-109097671D01*
X124655908Y-109232517D01*
X124649501Y-109292116D01*
X124649501Y-109292123D01*
X124649500Y-109292135D01*
X123180500Y-109292135D01*
X123180500Y-105948155D01*
X127158500Y-105948155D01*
X127158500Y-106500000D01*
X127979488Y-106500000D01*
X127946575Y-106557007D01*
X127912500Y-106684174D01*
X127912500Y-106815826D01*
X127946575Y-106942993D01*
X127979488Y-107000000D01*
X127158500Y-107000000D01*
X127158500Y-107551844D01*
X127164901Y-107611372D01*
X127164903Y-107611379D01*
X127215145Y-107746086D01*
X127215149Y-107746093D01*
X127301309Y-107861187D01*
X127301312Y-107861190D01*
X127416406Y-107947350D01*
X127416413Y-107947354D01*
X127551120Y-107997596D01*
X127551127Y-107997598D01*
X127610655Y-108003999D01*
X127610672Y-108004000D01*
X128162500Y-108004000D01*
X128162500Y-107183012D01*
X128219507Y-107215925D01*
X128346674Y-107250000D01*
X128478326Y-107250000D01*
X128605493Y-107215925D01*
X128662500Y-107183012D01*
X128662500Y-108004000D01*
X129214328Y-108004000D01*
X129214344Y-108003999D01*
X129273872Y-107997598D01*
X129273879Y-107997596D01*
X129408586Y-107947354D01*
X129408593Y-107947350D01*
X129523687Y-107861190D01*
X129523690Y-107861187D01*
X129609850Y-107746093D01*
X129609854Y-107746086D01*
X129660096Y-107611379D01*
X129660098Y-107611372D01*
X129666499Y-107551844D01*
X129666500Y-107551827D01*
X129666500Y-107000000D01*
X128845512Y-107000000D01*
X128878425Y-106942993D01*
X128912500Y-106815826D01*
X128912500Y-106684174D01*
X128903681Y-106651263D01*
X131658000Y-106651263D01*
X131658000Y-106848736D01*
X131688889Y-107043763D01*
X131747967Y-107225584D01*
X131749909Y-107231561D01*
X131832162Y-107392989D01*
X131839558Y-107407504D01*
X131955615Y-107567246D01*
X132095253Y-107706884D01*
X132209257Y-107789711D01*
X132254999Y-107822944D01*
X132430939Y-107912591D01*
X132537917Y-107947350D01*
X132618736Y-107973610D01*
X132813764Y-108004500D01*
X132813769Y-108004500D01*
X133011236Y-108004500D01*
X133206263Y-107973610D01*
X133394061Y-107912591D01*
X133570001Y-107822944D01*
X133675788Y-107746086D01*
X133729746Y-107706884D01*
X133729748Y-107706881D01*
X133729752Y-107706879D01*
X133869379Y-107567252D01*
X133869381Y-107567248D01*
X133869384Y-107567246D01*
X133985441Y-107407505D01*
X133985442Y-107407504D01*
X133985444Y-107407501D01*
X134052255Y-107276377D01*
X134100227Y-107225584D01*
X134168048Y-107208789D01*
X134234183Y-107231326D01*
X134273221Y-107276377D01*
X134295407Y-107319919D01*
X134314558Y-107357505D01*
X134430615Y-107517246D01*
X134570253Y-107656884D01*
X134693032Y-107746086D01*
X134729999Y-107772944D01*
X134905939Y-107862591D01*
X135031137Y-107903270D01*
X135093736Y-107923610D01*
X135288764Y-107954500D01*
X135288769Y-107954500D01*
X135486236Y-107954500D01*
X135681263Y-107923610D01*
X135715176Y-107912591D01*
X135869061Y-107862591D01*
X136045001Y-107772944D01*
X136134692Y-107707779D01*
X136204746Y-107656884D01*
X136204748Y-107656881D01*
X136204752Y-107656879D01*
X136344379Y-107517252D01*
X136344381Y-107517248D01*
X136344384Y-107517246D01*
X136424117Y-107407501D01*
X136460444Y-107357501D01*
X136550091Y-107181561D01*
X136611110Y-106993763D01*
X136621041Y-106931064D01*
X136642000Y-106798736D01*
X136642000Y-106601302D01*
X138633500Y-106601302D01*
X138633500Y-106798697D01*
X138664376Y-106993646D01*
X138725373Y-107181373D01*
X138814983Y-107357239D01*
X138840957Y-107392988D01*
X138840957Y-107392989D01*
X139404537Y-106829409D01*
X139421575Y-106892993D01*
X139487401Y-107007007D01*
X139580493Y-107100099D01*
X139694507Y-107165925D01*
X139758090Y-107182962D01*
X139194509Y-107746541D01*
X139194510Y-107746542D01*
X139230255Y-107772512D01*
X139230268Y-107772520D01*
X139406126Y-107862126D01*
X139593853Y-107923123D01*
X139788803Y-107954000D01*
X139986197Y-107954000D01*
X140181146Y-107923123D01*
X140368873Y-107862126D01*
X140544741Y-107772516D01*
X140580488Y-107746543D01*
X140580488Y-107746541D01*
X140016910Y-107182962D01*
X140080493Y-107165925D01*
X140194507Y-107100099D01*
X140287599Y-107007007D01*
X140353425Y-106892993D01*
X140370462Y-106829409D01*
X140934041Y-107392988D01*
X140934043Y-107392988D01*
X140960016Y-107357241D01*
X141049626Y-107181373D01*
X141110623Y-106993646D01*
X141141500Y-106798697D01*
X141141500Y-106601302D01*
X141110623Y-106406353D01*
X141093412Y-106353385D01*
X141093411Y-106353383D01*
X141082939Y-106321153D01*
X142099500Y-106321153D01*
X142099500Y-106478846D01*
X142130261Y-106633489D01*
X142130264Y-106633501D01*
X142190602Y-106779172D01*
X142190609Y-106779185D01*
X142278210Y-106910288D01*
X142278213Y-106910292D01*
X142389710Y-107021789D01*
X142470291Y-107075631D01*
X142515096Y-107129243D01*
X142523803Y-107198568D01*
X142523017Y-107202924D01*
X142499500Y-107321153D01*
X142499500Y-107321158D01*
X142499500Y-107478842D01*
X142499500Y-107478844D01*
X142499499Y-107478844D01*
X142505460Y-107508806D01*
X142499233Y-107578397D01*
X142456371Y-107633575D01*
X142452734Y-107636100D01*
X142389711Y-107678210D01*
X142389707Y-107678213D01*
X142278213Y-107789707D01*
X142278210Y-107789711D01*
X142190609Y-107920814D01*
X142190602Y-107920827D01*
X142130264Y-108066498D01*
X142130261Y-108066510D01*
X142099500Y-108221153D01*
X142099500Y-108378846D01*
X142130261Y-108533489D01*
X142130264Y-108533501D01*
X142190602Y-108679172D01*
X142190609Y-108679185D01*
X142278210Y-108810288D01*
X142278213Y-108810292D01*
X142389707Y-108921786D01*
X142389711Y-108921789D01*
X142520814Y-109009390D01*
X142520827Y-109009397D01*
X142666498Y-109069735D01*
X142666503Y-109069737D01*
X142793317Y-109094962D01*
X142821153Y-109100499D01*
X142821156Y-109100500D01*
X142821158Y-109100500D01*
X142978844Y-109100500D01*
X142978845Y-109100499D01*
X143133497Y-109069737D01*
X143252548Y-109020425D01*
X143322017Y-109012956D01*
X143347453Y-109020425D01*
X143466503Y-109069737D01*
X143593317Y-109094962D01*
X143621153Y-109100499D01*
X143621156Y-109100500D01*
X143621158Y-109100500D01*
X143778844Y-109100500D01*
X143778845Y-109100499D01*
X143933497Y-109069737D01*
X144079179Y-109009394D01*
X144210289Y-108921789D01*
X144321789Y-108810289D01*
X144409394Y-108679179D01*
X144469737Y-108533497D01*
X144500500Y-108378842D01*
X144500500Y-108221158D01*
X144500500Y-108221155D01*
X144500499Y-108221153D01*
X144497783Y-108207500D01*
X156900138Y-108207500D01*
X157703012Y-108207500D01*
X157685795Y-108217440D01*
X157629940Y-108273295D01*
X157590444Y-108341704D01*
X157570000Y-108418004D01*
X157570000Y-108496996D01*
X157590444Y-108573296D01*
X157629940Y-108641705D01*
X157685795Y-108697560D01*
X157703012Y-108707500D01*
X156900138Y-108707500D01*
X156908430Y-108749190D01*
X156908430Y-108749192D01*
X156983807Y-108931171D01*
X156983814Y-108931184D01*
X157093248Y-109094962D01*
X157093251Y-109094966D01*
X157232533Y-109234248D01*
X157232537Y-109234251D01*
X157396315Y-109343685D01*
X157396328Y-109343692D01*
X157578306Y-109419069D01*
X157578318Y-109419072D01*
X157771504Y-109457499D01*
X157771508Y-109457500D01*
X158170000Y-109457500D01*
X158170000Y-108757500D01*
X158670000Y-108757500D01*
X158670000Y-109388228D01*
X158650315Y-109455267D01*
X158621489Y-109486602D01*
X158615754Y-109491002D01*
X158523503Y-109583253D01*
X158523501Y-109583256D01*
X158458267Y-109696242D01*
X158436304Y-109778211D01*
X158424500Y-109822266D01*
X158424500Y-109952734D01*
X158435353Y-109993238D01*
X158458267Y-110078757D01*
X158476474Y-110110292D01*
X158523501Y-110191744D01*
X158615756Y-110283999D01*
X158728744Y-110349233D01*
X158854766Y-110383000D01*
X158854768Y-110383000D01*
X158985232Y-110383000D01*
X158985234Y-110383000D01*
X159111256Y-110349233D01*
X159224244Y-110283999D01*
X159316499Y-110191744D01*
X159381733Y-110078756D01*
X159415500Y-109952734D01*
X159415500Y-109822266D01*
X159381733Y-109696244D01*
X159316499Y-109583256D01*
X159315573Y-109582330D01*
X159315043Y-109581359D01*
X159311552Y-109576810D01*
X159312261Y-109576265D01*
X159282088Y-109521007D01*
X159287072Y-109451315D01*
X159328944Y-109395382D01*
X159355802Y-109380087D01*
X159443680Y-109343687D01*
X159443684Y-109343685D01*
X159607462Y-109234251D01*
X159607466Y-109234248D01*
X159746748Y-109094966D01*
X159746751Y-109094962D01*
X159856185Y-108931184D01*
X159856192Y-108931171D01*
X159931569Y-108749192D01*
X159931569Y-108749190D01*
X159939862Y-108707500D01*
X159136988Y-108707500D01*
X159154205Y-108697560D01*
X159210060Y-108641705D01*
X159249556Y-108573296D01*
X159270000Y-108496996D01*
X159270000Y-108418004D01*
X159249556Y-108341704D01*
X159210060Y-108273295D01*
X159154205Y-108217440D01*
X159136988Y-108207500D01*
X159939862Y-108207500D01*
X161230138Y-108207500D01*
X162033012Y-108207500D01*
X162015795Y-108217440D01*
X161959940Y-108273295D01*
X161920444Y-108341704D01*
X161900000Y-108418004D01*
X161900000Y-108496996D01*
X161920444Y-108573296D01*
X161959940Y-108641705D01*
X162015795Y-108697560D01*
X162033012Y-108707500D01*
X161230138Y-108707500D01*
X161238430Y-108749190D01*
X161238430Y-108749192D01*
X161313807Y-108931171D01*
X161313814Y-108931184D01*
X161423248Y-109094962D01*
X161423251Y-109094966D01*
X161562533Y-109234248D01*
X161562537Y-109234251D01*
X161726315Y-109343685D01*
X161726328Y-109343692D01*
X161908306Y-109419069D01*
X161908318Y-109419072D01*
X162101504Y-109457499D01*
X162101508Y-109457500D01*
X162350000Y-109457500D01*
X162350000Y-108757500D01*
X162850000Y-108757500D01*
X162850000Y-109457500D01*
X163098492Y-109457500D01*
X163098495Y-109457499D01*
X163291681Y-109419072D01*
X163291693Y-109419069D01*
X163473671Y-109343692D01*
X163473684Y-109343685D01*
X163637462Y-109234251D01*
X163637466Y-109234248D01*
X163776748Y-109094966D01*
X163776751Y-109094962D01*
X163886185Y-108931184D01*
X163886192Y-108931171D01*
X163961569Y-108749192D01*
X163961569Y-108749190D01*
X163969862Y-108707500D01*
X163166988Y-108707500D01*
X163184205Y-108697560D01*
X163240060Y-108641705D01*
X163279556Y-108573296D01*
X163300000Y-108496996D01*
X163300000Y-108418004D01*
X163279556Y-108341704D01*
X163240060Y-108273295D01*
X163184205Y-108217440D01*
X163166988Y-108207500D01*
X163969862Y-108207500D01*
X163961569Y-108165809D01*
X163961569Y-108165807D01*
X163886192Y-107983828D01*
X163886185Y-107983815D01*
X163776751Y-107820037D01*
X163776748Y-107820033D01*
X163637466Y-107680751D01*
X163637462Y-107680748D01*
X163473684Y-107571314D01*
X163473671Y-107571307D01*
X163291693Y-107495930D01*
X163291681Y-107495927D01*
X163098495Y-107457500D01*
X162850000Y-107457500D01*
X162850000Y-108157500D01*
X162350000Y-108157500D01*
X162350000Y-107457500D01*
X162101504Y-107457500D01*
X161908318Y-107495927D01*
X161908306Y-107495930D01*
X161726328Y-107571307D01*
X161726315Y-107571314D01*
X161562537Y-107680748D01*
X161562533Y-107680751D01*
X161423251Y-107820033D01*
X161423248Y-107820037D01*
X161313814Y-107983815D01*
X161313807Y-107983828D01*
X161238430Y-108165807D01*
X161238430Y-108165809D01*
X161230138Y-108207500D01*
X159939862Y-108207500D01*
X159931569Y-108165809D01*
X159931569Y-108165807D01*
X159856192Y-107983828D01*
X159856185Y-107983815D01*
X159746751Y-107820037D01*
X159746748Y-107820033D01*
X159607466Y-107680751D01*
X159607462Y-107680748D01*
X159443684Y-107571314D01*
X159443674Y-107571309D01*
X159411046Y-107557794D01*
X159356643Y-107513953D01*
X159334578Y-107447658D01*
X159343937Y-107395783D01*
X159369737Y-107333497D01*
X159400500Y-107178842D01*
X159400500Y-107021158D01*
X159400500Y-107021155D01*
X159400499Y-107021153D01*
X159382579Y-106931064D01*
X159369737Y-106866503D01*
X159333569Y-106779185D01*
X159320425Y-106747452D01*
X159312956Y-106677983D01*
X159320425Y-106652548D01*
X159341984Y-106600499D01*
X159369737Y-106533497D01*
X159400500Y-106378842D01*
X159400500Y-106221158D01*
X159400500Y-106221155D01*
X159400499Y-106221153D01*
X159369737Y-106066503D01*
X159359903Y-106042762D01*
X159309397Y-105920827D01*
X159309390Y-105920814D01*
X159221789Y-105789711D01*
X159221786Y-105789707D01*
X159110292Y-105678213D01*
X159110288Y-105678210D01*
X159005427Y-105608144D01*
X158960622Y-105554532D01*
X158951915Y-105485207D01*
X158959758Y-105457587D01*
X158963757Y-105447933D01*
X158969737Y-105433497D01*
X159000500Y-105278842D01*
X159000500Y-105121158D01*
X159000500Y-105121155D01*
X159000499Y-105121153D01*
X158982419Y-105030261D01*
X158969737Y-104966503D01*
X158956062Y-104933489D01*
X158909397Y-104820827D01*
X158909390Y-104820814D01*
X158821789Y-104689711D01*
X158821786Y-104689707D01*
X158710292Y-104578213D01*
X158710288Y-104578210D01*
X158579185Y-104490609D01*
X158579172Y-104490602D01*
X158433501Y-104430264D01*
X158433489Y-104430261D01*
X158278845Y-104399500D01*
X158278842Y-104399500D01*
X158121158Y-104399500D01*
X158121155Y-104399500D01*
X157966510Y-104430261D01*
X157966498Y-104430264D01*
X157820827Y-104490602D01*
X157820814Y-104490609D01*
X157689711Y-104578210D01*
X157689707Y-104578213D01*
X157578213Y-104689707D01*
X157578210Y-104689711D01*
X157490609Y-104820814D01*
X157490602Y-104820827D01*
X157430264Y-104966498D01*
X157430261Y-104966510D01*
X157399500Y-105121153D01*
X157399500Y-105278846D01*
X157430261Y-105433489D01*
X157430264Y-105433501D01*
X157490602Y-105579172D01*
X157490609Y-105579185D01*
X157578210Y-105710288D01*
X157578213Y-105710292D01*
X157689710Y-105821789D01*
X157794572Y-105891855D01*
X157839377Y-105945467D01*
X157848084Y-106014792D01*
X157840244Y-106042406D01*
X157830262Y-106066506D01*
X157830260Y-106066511D01*
X157799500Y-106221153D01*
X157799500Y-106378846D01*
X157830261Y-106533489D01*
X157830264Y-106533501D01*
X157879574Y-106652548D01*
X157887043Y-106722018D01*
X157879574Y-106747452D01*
X157830264Y-106866498D01*
X157830261Y-106866510D01*
X157799500Y-107021153D01*
X157799500Y-107021158D01*
X157799500Y-107178842D01*
X157799500Y-107178844D01*
X157799499Y-107178844D01*
X157827562Y-107319919D01*
X157821335Y-107389511D01*
X157778472Y-107444688D01*
X157730137Y-107465728D01*
X157578316Y-107495927D01*
X157578306Y-107495930D01*
X157396328Y-107571307D01*
X157396315Y-107571314D01*
X157232537Y-107680748D01*
X157232533Y-107680751D01*
X157093251Y-107820033D01*
X157093248Y-107820037D01*
X156983814Y-107983815D01*
X156983807Y-107983828D01*
X156908430Y-108165807D01*
X156908430Y-108165809D01*
X156900138Y-108207500D01*
X144497783Y-108207500D01*
X144489490Y-108165807D01*
X144469737Y-108066503D01*
X144431260Y-107973610D01*
X144409397Y-107920827D01*
X144409390Y-107920814D01*
X144321789Y-107789711D01*
X144321786Y-107789707D01*
X144210292Y-107678213D01*
X144210288Y-107678210D01*
X144147265Y-107636099D01*
X144102460Y-107582487D01*
X144093753Y-107513162D01*
X144094540Y-107508801D01*
X144100500Y-107478844D01*
X144100500Y-107321155D01*
X144076982Y-107202925D01*
X144083209Y-107133333D01*
X144126072Y-107078156D01*
X144129675Y-107075653D01*
X144210289Y-107021789D01*
X144310925Y-106921153D01*
X149899500Y-106921153D01*
X149899500Y-107078846D01*
X149930261Y-107233489D01*
X149930264Y-107233501D01*
X149990602Y-107379172D01*
X149990609Y-107379185D01*
X150078210Y-107510288D01*
X150078213Y-107510292D01*
X150189707Y-107621786D01*
X150189711Y-107621789D01*
X150320814Y-107709390D01*
X150320827Y-107709397D01*
X150410507Y-107746543D01*
X150466503Y-107769737D01*
X150621153Y-107800499D01*
X150621156Y-107800500D01*
X150621158Y-107800500D01*
X150778844Y-107800500D01*
X150778845Y-107800499D01*
X150933497Y-107769737D01*
X151079179Y-107709394D01*
X151210289Y-107621789D01*
X151321789Y-107510289D01*
X151409394Y-107379179D01*
X151469737Y-107233497D01*
X151500500Y-107078842D01*
X151500500Y-106921158D01*
X151500500Y-106921155D01*
X151500499Y-106921153D01*
X151479548Y-106815826D01*
X151469737Y-106766503D01*
X151442191Y-106700000D01*
X151409397Y-106620827D01*
X151409390Y-106620814D01*
X151321789Y-106489711D01*
X151321786Y-106489707D01*
X151210292Y-106378213D01*
X151210288Y-106378210D01*
X151079185Y-106290609D01*
X151079172Y-106290602D01*
X150933501Y-106230264D01*
X150933489Y-106230261D01*
X150778845Y-106199500D01*
X150778842Y-106199500D01*
X150621158Y-106199500D01*
X150621155Y-106199500D01*
X150466510Y-106230261D01*
X150466498Y-106230264D01*
X150320827Y-106290602D01*
X150320814Y-106290609D01*
X150189711Y-106378210D01*
X150189707Y-106378213D01*
X150078213Y-106489707D01*
X150078210Y-106489711D01*
X149990609Y-106620814D01*
X149990602Y-106620827D01*
X149930264Y-106766498D01*
X149930261Y-106766510D01*
X149899500Y-106921153D01*
X144310925Y-106921153D01*
X144321789Y-106910289D01*
X144351049Y-106866498D01*
X144364629Y-106846175D01*
X144409390Y-106779185D01*
X144409390Y-106779184D01*
X144409394Y-106779179D01*
X144469737Y-106633497D01*
X144500500Y-106478842D01*
X144500500Y-106321158D01*
X144500500Y-106321155D01*
X144500499Y-106321153D01*
X144480734Y-106221789D01*
X144469737Y-106166503D01*
X144439082Y-106092495D01*
X144409397Y-106020827D01*
X144409390Y-106020814D01*
X144321789Y-105889711D01*
X144321786Y-105889707D01*
X144210292Y-105778213D01*
X144210288Y-105778210D01*
X144079185Y-105690609D01*
X144079172Y-105690602D01*
X143933501Y-105630264D01*
X143933489Y-105630261D01*
X143778845Y-105599500D01*
X143778842Y-105599500D01*
X143621158Y-105599500D01*
X143621155Y-105599500D01*
X143466510Y-105630261D01*
X143466498Y-105630264D01*
X143347452Y-105679574D01*
X143277982Y-105687043D01*
X143252548Y-105679574D01*
X143133501Y-105630264D01*
X143133489Y-105630261D01*
X142978845Y-105599500D01*
X142978842Y-105599500D01*
X142821158Y-105599500D01*
X142821155Y-105599500D01*
X142666510Y-105630261D01*
X142666498Y-105630264D01*
X142520827Y-105690602D01*
X142520814Y-105690609D01*
X142389711Y-105778210D01*
X142389707Y-105778213D01*
X142278213Y-105889707D01*
X142278210Y-105889711D01*
X142190609Y-106020814D01*
X142190602Y-106020827D01*
X142130264Y-106166498D01*
X142130261Y-106166510D01*
X142099500Y-106321153D01*
X141082939Y-106321153D01*
X141049626Y-106218628D01*
X140960020Y-106042768D01*
X140960012Y-106042755D01*
X140934042Y-106007010D01*
X140934041Y-106007009D01*
X140370462Y-106570589D01*
X140353425Y-106507007D01*
X140287599Y-106392993D01*
X140194507Y-106299901D01*
X140080493Y-106234075D01*
X140016909Y-106217037D01*
X140580489Y-105653457D01*
X140544739Y-105627483D01*
X140368873Y-105537873D01*
X140317415Y-105521153D01*
X146999500Y-105521153D01*
X146999500Y-105678846D01*
X147030261Y-105833489D01*
X147030264Y-105833501D01*
X147090602Y-105979172D01*
X147090609Y-105979185D01*
X147178210Y-106110288D01*
X147178213Y-106110292D01*
X147289707Y-106221786D01*
X147289711Y-106221789D01*
X147420814Y-106309390D01*
X147420827Y-106309397D01*
X147527025Y-106353385D01*
X147566503Y-106369737D01*
X147721153Y-106400499D01*
X147721156Y-106400500D01*
X147721158Y-106400500D01*
X147878844Y-106400500D01*
X147878845Y-106400499D01*
X148033497Y-106369737D01*
X148179179Y-106309394D01*
X148310289Y-106221789D01*
X148421789Y-106110289D01*
X148509394Y-105979179D01*
X148569737Y-105833497D01*
X148592083Y-105721158D01*
X148592084Y-105721153D01*
X154599500Y-105721153D01*
X154599500Y-105878846D01*
X154630261Y-106033489D01*
X154630264Y-106033501D01*
X154690602Y-106179172D01*
X154690609Y-106179185D01*
X154778210Y-106310288D01*
X154778213Y-106310292D01*
X154889707Y-106421786D01*
X154889711Y-106421789D01*
X155020814Y-106509390D01*
X155020827Y-106509397D01*
X155166498Y-106569735D01*
X155166503Y-106569737D01*
X155321153Y-106600499D01*
X155321156Y-106600500D01*
X155321158Y-106600500D01*
X155478844Y-106600500D01*
X155478845Y-106600499D01*
X155633497Y-106569737D01*
X155779179Y-106509394D01*
X155910289Y-106421789D01*
X156021789Y-106310289D01*
X156109394Y-106179179D01*
X156111698Y-106173618D01*
X156145298Y-106092499D01*
X156169737Y-106033497D01*
X156200500Y-105878842D01*
X156200500Y-105721158D01*
X156200500Y-105721155D01*
X156200499Y-105721153D01*
X156192228Y-105679574D01*
X156169737Y-105566503D01*
X156168808Y-105564259D01*
X156109397Y-105420827D01*
X156109390Y-105420814D01*
X156021789Y-105289711D01*
X156021786Y-105289707D01*
X155910292Y-105178213D01*
X155910288Y-105178210D01*
X155779185Y-105090609D01*
X155779172Y-105090602D01*
X155633501Y-105030264D01*
X155633489Y-105030261D01*
X155478845Y-104999500D01*
X155478842Y-104999500D01*
X155321158Y-104999500D01*
X155321155Y-104999500D01*
X155166510Y-105030261D01*
X155166498Y-105030264D01*
X155020827Y-105090602D01*
X155020814Y-105090609D01*
X154889711Y-105178210D01*
X154889707Y-105178213D01*
X154778213Y-105289707D01*
X154778210Y-105289711D01*
X154690609Y-105420814D01*
X154690602Y-105420827D01*
X154630264Y-105566498D01*
X154630261Y-105566510D01*
X154599500Y-105721153D01*
X148592084Y-105721153D01*
X148598107Y-105690875D01*
X148598107Y-105690874D01*
X148600500Y-105678844D01*
X148600500Y-105521155D01*
X148600499Y-105521153D01*
X148587855Y-105457587D01*
X148569737Y-105366503D01*
X148537929Y-105289711D01*
X148509397Y-105220827D01*
X148509390Y-105220814D01*
X148421789Y-105089711D01*
X148421786Y-105089707D01*
X148310292Y-104978213D01*
X148310288Y-104978210D01*
X148179185Y-104890609D01*
X148179172Y-104890602D01*
X148033501Y-104830264D01*
X148033489Y-104830261D01*
X147878845Y-104799500D01*
X147878842Y-104799500D01*
X147721158Y-104799500D01*
X147721155Y-104799500D01*
X147566510Y-104830261D01*
X147566498Y-104830264D01*
X147420827Y-104890602D01*
X147420814Y-104890609D01*
X147289711Y-104978210D01*
X147289707Y-104978213D01*
X147178213Y-105089707D01*
X147178210Y-105089711D01*
X147090609Y-105220814D01*
X147090602Y-105220827D01*
X147030264Y-105366498D01*
X147030261Y-105366510D01*
X146999500Y-105521153D01*
X140317415Y-105521153D01*
X140181146Y-105476876D01*
X139986197Y-105446000D01*
X139788803Y-105446000D01*
X139593853Y-105476876D01*
X139406126Y-105537873D01*
X139230262Y-105627482D01*
X139230260Y-105627483D01*
X139194510Y-105653456D01*
X139194510Y-105653457D01*
X139758091Y-106217037D01*
X139694507Y-106234075D01*
X139580493Y-106299901D01*
X139487401Y-106392993D01*
X139421575Y-106507007D01*
X139404537Y-106570590D01*
X138840957Y-106007010D01*
X138840956Y-106007010D01*
X138814983Y-106042760D01*
X138814982Y-106042762D01*
X138725373Y-106218626D01*
X138664376Y-106406353D01*
X138633500Y-106601302D01*
X136642000Y-106601302D01*
X136642000Y-106601263D01*
X136611110Y-106406236D01*
X136579644Y-106309394D01*
X136550091Y-106218439D01*
X136460444Y-106042499D01*
X136452986Y-106032234D01*
X136344384Y-105882753D01*
X136204746Y-105743115D01*
X136045004Y-105627058D01*
X136045003Y-105627057D01*
X136045001Y-105627056D01*
X135869061Y-105537409D01*
X135835145Y-105526389D01*
X135681263Y-105476389D01*
X135486236Y-105445500D01*
X135486231Y-105445500D01*
X135288769Y-105445500D01*
X135288764Y-105445500D01*
X135093736Y-105476389D01*
X134905941Y-105537408D01*
X134729995Y-105627058D01*
X134570253Y-105743115D01*
X134430615Y-105882753D01*
X134314556Y-106042497D01*
X134247745Y-106173620D01*
X134199771Y-106224415D01*
X134131950Y-106241210D01*
X134065815Y-106218672D01*
X134026777Y-106173619D01*
X133985444Y-106092499D01*
X133985443Y-106092497D01*
X133869384Y-105932753D01*
X133729746Y-105793115D01*
X133570004Y-105677058D01*
X133570003Y-105677057D01*
X133570001Y-105677056D01*
X133394061Y-105587409D01*
X133394058Y-105587408D01*
X133206263Y-105526389D01*
X133011236Y-105495500D01*
X133011231Y-105495500D01*
X132813769Y-105495500D01*
X132813764Y-105495500D01*
X132618736Y-105526389D01*
X132430941Y-105587408D01*
X132254995Y-105677058D01*
X132095253Y-105793115D01*
X131955615Y-105932753D01*
X131839558Y-106092495D01*
X131749908Y-106268441D01*
X131688889Y-106456236D01*
X131658000Y-106651263D01*
X128903681Y-106651263D01*
X128878425Y-106557007D01*
X128845512Y-106500000D01*
X129666500Y-106500000D01*
X129666500Y-105948172D01*
X129666499Y-105948155D01*
X129660098Y-105888627D01*
X129660096Y-105888620D01*
X129609854Y-105753913D01*
X129609850Y-105753906D01*
X129523690Y-105638812D01*
X129523687Y-105638809D01*
X129408593Y-105552649D01*
X129408586Y-105552645D01*
X129273879Y-105502403D01*
X129273872Y-105502401D01*
X129214344Y-105496000D01*
X128662500Y-105496000D01*
X128662500Y-106316988D01*
X128605493Y-106284075D01*
X128478326Y-106250000D01*
X128346674Y-106250000D01*
X128219507Y-106284075D01*
X128162500Y-106316988D01*
X128162500Y-105496000D01*
X127610655Y-105496000D01*
X127551127Y-105502401D01*
X127551120Y-105502403D01*
X127416413Y-105552645D01*
X127416406Y-105552649D01*
X127301312Y-105638809D01*
X127301309Y-105638812D01*
X127215149Y-105753906D01*
X127215145Y-105753913D01*
X127164903Y-105888620D01*
X127164901Y-105888627D01*
X127158500Y-105948155D01*
X123180500Y-105948155D01*
X123180500Y-104747302D01*
X123425644Y-104747302D01*
X123425644Y-104904986D01*
X123428500Y-104919343D01*
X123428500Y-104919347D01*
X123456405Y-105059633D01*
X123456408Y-105059645D01*
X123516746Y-105205316D01*
X123516753Y-105205329D01*
X123604354Y-105336432D01*
X123604357Y-105336436D01*
X123715851Y-105447930D01*
X123715855Y-105447933D01*
X123846958Y-105535534D01*
X123846971Y-105535541D01*
X123979912Y-105590606D01*
X123992647Y-105595881D01*
X124147297Y-105626643D01*
X124147300Y-105626644D01*
X124147302Y-105626644D01*
X124304988Y-105626644D01*
X124304989Y-105626643D01*
X124459641Y-105595881D01*
X124600806Y-105537409D01*
X124605316Y-105535541D01*
X124605316Y-105535540D01*
X124605323Y-105535538D01*
X124736433Y-105447933D01*
X124847933Y-105336433D01*
X124935538Y-105205323D01*
X124946769Y-105178210D01*
X124970402Y-105121153D01*
X124995881Y-105059641D01*
X125026644Y-104904986D01*
X125026644Y-104747302D01*
X125026644Y-104747299D01*
X125026643Y-104747297D01*
X125005153Y-104639257D01*
X125001552Y-104621153D01*
X149814500Y-104621153D01*
X149814500Y-104778846D01*
X149845261Y-104933489D01*
X149845264Y-104933501D01*
X149905602Y-105079172D01*
X149905609Y-105079185D01*
X149993210Y-105210288D01*
X149993213Y-105210292D01*
X150104707Y-105321786D01*
X150104711Y-105321789D01*
X150235814Y-105409390D01*
X150235827Y-105409397D01*
X150328863Y-105447933D01*
X150381503Y-105469737D01*
X150513535Y-105496000D01*
X150536153Y-105500499D01*
X150536156Y-105500500D01*
X150536158Y-105500500D01*
X150693844Y-105500500D01*
X150693845Y-105500499D01*
X150848497Y-105469737D01*
X150966592Y-105420821D01*
X150994172Y-105409397D01*
X150994172Y-105409396D01*
X150994179Y-105409394D01*
X151125289Y-105321789D01*
X151236789Y-105210289D01*
X151324394Y-105079179D01*
X151384737Y-104933497D01*
X151415500Y-104778842D01*
X151415500Y-104621158D01*
X151415500Y-104621155D01*
X151415499Y-104621153D01*
X151389531Y-104490606D01*
X151384737Y-104466503D01*
X151376641Y-104446958D01*
X151324397Y-104320827D01*
X151324390Y-104320814D01*
X151236789Y-104189711D01*
X151236786Y-104189707D01*
X151125292Y-104078213D01*
X151125288Y-104078210D01*
X150994185Y-103990609D01*
X150994172Y-103990602D01*
X150848501Y-103930264D01*
X150848489Y-103930261D01*
X150693845Y-103899500D01*
X150693842Y-103899500D01*
X150536158Y-103899500D01*
X150536155Y-103899500D01*
X150381510Y-103930261D01*
X150381498Y-103930264D01*
X150235827Y-103990602D01*
X150235814Y-103990609D01*
X150104711Y-104078210D01*
X150104707Y-104078213D01*
X149993213Y-104189707D01*
X149993210Y-104189711D01*
X149905609Y-104320814D01*
X149905602Y-104320827D01*
X149845264Y-104466498D01*
X149845261Y-104466510D01*
X149814500Y-104621153D01*
X125001552Y-104621153D01*
X124995882Y-104592652D01*
X124995881Y-104592651D01*
X124995881Y-104592647D01*
X124989902Y-104578213D01*
X124935541Y-104446971D01*
X124935534Y-104446958D01*
X124847933Y-104315855D01*
X124847930Y-104315851D01*
X124736436Y-104204357D01*
X124736432Y-104204354D01*
X124605329Y-104116753D01*
X124605316Y-104116746D01*
X124459645Y-104056408D01*
X124459633Y-104056405D01*
X124304989Y-104025644D01*
X124304986Y-104025644D01*
X124147302Y-104025644D01*
X124147299Y-104025644D01*
X123992654Y-104056405D01*
X123992642Y-104056408D01*
X123846971Y-104116746D01*
X123846958Y-104116753D01*
X123715855Y-104204354D01*
X123715851Y-104204357D01*
X123604357Y-104315851D01*
X123604354Y-104315855D01*
X123516753Y-104446958D01*
X123516746Y-104446971D01*
X123456408Y-104592642D01*
X123456405Y-104592652D01*
X123428500Y-104732941D01*
X123428500Y-104732944D01*
X123425644Y-104747302D01*
X123180500Y-104747302D01*
X123180500Y-102721153D01*
X125299500Y-102721153D01*
X125299500Y-102878846D01*
X125330261Y-103033489D01*
X125330264Y-103033501D01*
X125390602Y-103179172D01*
X125390609Y-103179185D01*
X125478210Y-103310288D01*
X125478213Y-103310292D01*
X125589707Y-103421786D01*
X125589711Y-103421789D01*
X125720814Y-103509390D01*
X125720827Y-103509397D01*
X125866498Y-103569735D01*
X125866503Y-103569737D01*
X126021153Y-103600499D01*
X126021156Y-103600500D01*
X126021158Y-103600500D01*
X126178844Y-103600500D01*
X126178845Y-103600499D01*
X126333497Y-103569737D01*
X126390434Y-103546153D01*
X141699500Y-103546153D01*
X141699500Y-103703846D01*
X141730261Y-103858489D01*
X141730264Y-103858501D01*
X141790602Y-104004172D01*
X141790609Y-104004185D01*
X141878210Y-104135288D01*
X141878213Y-104135292D01*
X141989707Y-104246786D01*
X141989711Y-104246789D01*
X142120814Y-104334390D01*
X142120827Y-104334397D01*
X142266498Y-104394735D01*
X142266503Y-104394737D01*
X142421153Y-104425499D01*
X142421156Y-104425500D01*
X142421158Y-104425500D01*
X142578844Y-104425500D01*
X142578845Y-104425499D01*
X142733497Y-104394737D01*
X142879179Y-104334394D01*
X143010289Y-104246789D01*
X143121789Y-104135289D01*
X143209394Y-104004179D01*
X143269737Y-103858497D01*
X143300500Y-103703842D01*
X143300500Y-103546158D01*
X143300500Y-103546155D01*
X143300499Y-103546153D01*
X144399500Y-103546153D01*
X144399500Y-103703846D01*
X144430261Y-103858489D01*
X144430264Y-103858501D01*
X144490602Y-104004172D01*
X144490609Y-104004185D01*
X144578210Y-104135288D01*
X144578213Y-104135292D01*
X144689707Y-104246786D01*
X144689711Y-104246789D01*
X144820814Y-104334390D01*
X144820827Y-104334397D01*
X144966498Y-104394735D01*
X144966503Y-104394737D01*
X145121153Y-104425499D01*
X145121156Y-104425500D01*
X145121158Y-104425500D01*
X145278844Y-104425500D01*
X145278845Y-104425499D01*
X145433497Y-104394737D01*
X145579179Y-104334394D01*
X145710289Y-104246789D01*
X145821789Y-104135289D01*
X145909394Y-104004179D01*
X145969737Y-103858497D01*
X146000500Y-103703842D01*
X146000500Y-103546158D01*
X146000500Y-103546155D01*
X145984209Y-103464258D01*
X145984209Y-103464257D01*
X145980608Y-103446153D01*
X147199500Y-103446153D01*
X147199500Y-103603846D01*
X147230261Y-103758489D01*
X147230264Y-103758501D01*
X147290602Y-103904172D01*
X147290609Y-103904185D01*
X147378210Y-104035288D01*
X147378213Y-104035292D01*
X147489707Y-104146786D01*
X147489711Y-104146789D01*
X147620814Y-104234390D01*
X147620827Y-104234397D01*
X147766498Y-104294735D01*
X147766503Y-104294737D01*
X147921153Y-104325499D01*
X147921156Y-104325500D01*
X147921158Y-104325500D01*
X148078844Y-104325500D01*
X148078845Y-104325499D01*
X148233497Y-104294737D01*
X148379179Y-104234394D01*
X148510289Y-104146789D01*
X148621789Y-104035289D01*
X148709394Y-103904179D01*
X148769737Y-103758497D01*
X148800500Y-103603842D01*
X148800500Y-103446158D01*
X148800500Y-103446155D01*
X148800499Y-103446153D01*
X148773474Y-103310292D01*
X148769737Y-103291503D01*
X148723214Y-103179185D01*
X148709397Y-103145827D01*
X148709390Y-103145814D01*
X148621789Y-103014711D01*
X148621786Y-103014707D01*
X148510292Y-102903213D01*
X148510288Y-102903210D01*
X148379185Y-102815609D01*
X148379172Y-102815602D01*
X148233501Y-102755264D01*
X148233489Y-102755261D01*
X148078845Y-102724500D01*
X148078842Y-102724500D01*
X147921158Y-102724500D01*
X147921155Y-102724500D01*
X147766510Y-102755261D01*
X147766498Y-102755264D01*
X147620827Y-102815602D01*
X147620814Y-102815609D01*
X147489711Y-102903210D01*
X147489707Y-102903213D01*
X147378213Y-103014707D01*
X147378210Y-103014711D01*
X147290609Y-103145814D01*
X147290602Y-103145827D01*
X147230264Y-103291498D01*
X147230261Y-103291510D01*
X147199500Y-103446153D01*
X145980608Y-103446153D01*
X145969738Y-103391510D01*
X145969737Y-103391503D01*
X145936099Y-103310292D01*
X145909397Y-103245827D01*
X145909390Y-103245814D01*
X145821789Y-103114711D01*
X145821786Y-103114707D01*
X145710292Y-103003213D01*
X145710288Y-103003210D01*
X145579185Y-102915609D01*
X145579172Y-102915602D01*
X145433501Y-102855264D01*
X145433489Y-102855261D01*
X145278845Y-102824500D01*
X145278842Y-102824500D01*
X145121158Y-102824500D01*
X145121155Y-102824500D01*
X144966510Y-102855261D01*
X144966498Y-102855264D01*
X144820827Y-102915602D01*
X144820814Y-102915609D01*
X144689711Y-103003210D01*
X144689707Y-103003213D01*
X144578213Y-103114707D01*
X144578210Y-103114711D01*
X144490609Y-103245814D01*
X144490602Y-103245827D01*
X144430264Y-103391498D01*
X144430261Y-103391510D01*
X144399500Y-103546153D01*
X143300499Y-103546153D01*
X143284209Y-103464257D01*
X143269737Y-103391503D01*
X143236099Y-103310292D01*
X143209397Y-103245827D01*
X143209390Y-103245814D01*
X143121789Y-103114711D01*
X143121786Y-103114707D01*
X143010292Y-103003213D01*
X143010288Y-103003210D01*
X142879185Y-102915609D01*
X142879172Y-102915602D01*
X142733501Y-102855264D01*
X142733489Y-102855261D01*
X142578845Y-102824500D01*
X142578842Y-102824500D01*
X142421158Y-102824500D01*
X142421155Y-102824500D01*
X142266510Y-102855261D01*
X142266498Y-102855264D01*
X142120827Y-102915602D01*
X142120814Y-102915609D01*
X141989711Y-103003210D01*
X141989707Y-103003213D01*
X141878213Y-103114707D01*
X141878210Y-103114711D01*
X141790609Y-103245814D01*
X141790602Y-103245827D01*
X141730264Y-103391498D01*
X141730261Y-103391510D01*
X141699500Y-103546153D01*
X126390434Y-103546153D01*
X126479179Y-103509394D01*
X126610289Y-103421789D01*
X126721789Y-103310289D01*
X126809394Y-103179179D01*
X126869737Y-103033497D01*
X126900500Y-102878842D01*
X126900500Y-102721158D01*
X126900500Y-102721155D01*
X126900499Y-102721153D01*
X126869738Y-102566510D01*
X126869737Y-102566503D01*
X126869735Y-102566498D01*
X126809397Y-102420827D01*
X126809390Y-102420814D01*
X126721789Y-102289711D01*
X126721786Y-102289707D01*
X126610292Y-102178213D01*
X126610288Y-102178210D01*
X126479185Y-102090609D01*
X126479172Y-102090602D01*
X126333501Y-102030264D01*
X126333489Y-102030261D01*
X126178845Y-101999500D01*
X126178842Y-101999500D01*
X126021158Y-101999500D01*
X126021155Y-101999500D01*
X125866510Y-102030261D01*
X125866498Y-102030264D01*
X125720827Y-102090602D01*
X125720814Y-102090609D01*
X125589711Y-102178210D01*
X125589707Y-102178213D01*
X125478213Y-102289707D01*
X125478210Y-102289711D01*
X125390609Y-102420814D01*
X125390602Y-102420827D01*
X125330264Y-102566498D01*
X125330261Y-102566510D01*
X125299500Y-102721153D01*
X123180500Y-102721153D01*
X123180500Y-100151302D01*
X127158500Y-100151302D01*
X127158500Y-100348697D01*
X127189376Y-100543646D01*
X127250373Y-100731373D01*
X127339983Y-100907239D01*
X127365957Y-100942988D01*
X127365957Y-100942989D01*
X127929537Y-100379409D01*
X127946575Y-100442993D01*
X128012401Y-100557007D01*
X128105493Y-100650099D01*
X128219507Y-100715925D01*
X128283090Y-100732962D01*
X127719509Y-101296541D01*
X127719510Y-101296542D01*
X127755255Y-101322512D01*
X127755268Y-101322520D01*
X127931126Y-101412126D01*
X128118853Y-101473123D01*
X128313803Y-101504000D01*
X128511197Y-101504000D01*
X128706146Y-101473123D01*
X128893873Y-101412126D01*
X129069741Y-101322516D01*
X129105488Y-101296543D01*
X129105488Y-101296541D01*
X128541910Y-100732962D01*
X128605493Y-100715925D01*
X128719507Y-100650099D01*
X128812599Y-100557007D01*
X128878425Y-100442993D01*
X128895462Y-100379409D01*
X129459041Y-100942988D01*
X129459043Y-100942988D01*
X129485016Y-100907241D01*
X129574626Y-100731373D01*
X129635623Y-100543646D01*
X129666500Y-100348697D01*
X129666500Y-100151302D01*
X129666494Y-100151263D01*
X131658000Y-100151263D01*
X131658000Y-100348736D01*
X131688889Y-100543763D01*
X131747967Y-100725584D01*
X131749909Y-100731561D01*
X131839423Y-100907239D01*
X131839558Y-100907504D01*
X131955615Y-101067246D01*
X132095253Y-101206884D01*
X132186175Y-101272941D01*
X132254999Y-101322944D01*
X132430939Y-101412591D01*
X132538674Y-101447596D01*
X132618736Y-101473610D01*
X132813764Y-101504500D01*
X132813769Y-101504500D01*
X133011236Y-101504500D01*
X133206263Y-101473610D01*
X133207762Y-101473123D01*
X133394061Y-101412591D01*
X133570001Y-101322944D01*
X133659692Y-101257779D01*
X133729746Y-101206884D01*
X133729748Y-101206881D01*
X133729752Y-101206879D01*
X133869379Y-101067252D01*
X133869381Y-101067248D01*
X133869384Y-101067246D01*
X133985441Y-100907505D01*
X133985442Y-100907504D01*
X133985444Y-100907501D01*
X134052255Y-100776377D01*
X134100227Y-100725584D01*
X134168048Y-100708789D01*
X134234183Y-100731326D01*
X134273221Y-100776377D01*
X134312472Y-100853412D01*
X134314558Y-100857505D01*
X134430615Y-101017246D01*
X134570253Y-101156884D01*
X134719734Y-101265486D01*
X134729999Y-101272944D01*
X134905939Y-101362591D01*
X135012917Y-101397350D01*
X135093736Y-101423610D01*
X135288764Y-101454500D01*
X135288769Y-101454500D01*
X135486236Y-101454500D01*
X135681263Y-101423610D01*
X135716607Y-101412126D01*
X135869061Y-101362591D01*
X136045001Y-101272944D01*
X136134692Y-101207779D01*
X136204746Y-101156884D01*
X136204748Y-101156881D01*
X136204752Y-101156879D01*
X136344379Y-101017252D01*
X136344381Y-101017248D01*
X136344384Y-101017246D01*
X136398334Y-100942989D01*
X136460444Y-100857501D01*
X136550091Y-100681561D01*
X136611110Y-100493763D01*
X136629249Y-100379240D01*
X136629249Y-100379239D01*
X136642000Y-100298735D01*
X136642000Y-100101263D01*
X136611110Y-99906236D01*
X136569828Y-99779185D01*
X136550091Y-99718439D01*
X136460444Y-99542499D01*
X136406126Y-99467736D01*
X136406125Y-99467733D01*
X136355574Y-99398155D01*
X138633500Y-99398155D01*
X138633500Y-99950000D01*
X139454488Y-99950000D01*
X139421575Y-100007007D01*
X139387500Y-100134174D01*
X139387500Y-100265826D01*
X139421575Y-100392993D01*
X139454488Y-100450000D01*
X138633500Y-100450000D01*
X138633500Y-101001844D01*
X138639901Y-101061372D01*
X138639903Y-101061379D01*
X138690145Y-101196086D01*
X138690149Y-101196093D01*
X138776309Y-101311187D01*
X138776312Y-101311190D01*
X138891406Y-101397350D01*
X138891413Y-101397354D01*
X139026120Y-101447596D01*
X139026127Y-101447598D01*
X139085655Y-101453999D01*
X139085672Y-101454000D01*
X139637500Y-101454000D01*
X139637500Y-100633012D01*
X139694507Y-100665925D01*
X139821674Y-100700000D01*
X139953326Y-100700000D01*
X140080493Y-100665925D01*
X140137500Y-100633012D01*
X140137500Y-101454000D01*
X140689328Y-101454000D01*
X140689344Y-101453999D01*
X140748872Y-101447598D01*
X140748879Y-101447596D01*
X140883586Y-101397354D01*
X140883593Y-101397350D01*
X140998687Y-101311190D01*
X140998690Y-101311187D01*
X141084850Y-101196093D01*
X141084854Y-101196086D01*
X141135096Y-101061379D01*
X141135098Y-101061372D01*
X141141499Y-101001844D01*
X141141500Y-101001827D01*
X141141500Y-100450000D01*
X140320512Y-100450000D01*
X140353425Y-100392993D01*
X140387500Y-100265826D01*
X140387500Y-100134174D01*
X140353425Y-100007007D01*
X140320512Y-99950000D01*
X141141500Y-99950000D01*
X141141500Y-99398172D01*
X141141499Y-99398155D01*
X141135098Y-99338627D01*
X141135096Y-99338620D01*
X141105176Y-99258399D01*
X141091284Y-99221153D01*
X142899500Y-99221153D01*
X142899500Y-99378846D01*
X142930261Y-99533489D01*
X142930264Y-99533501D01*
X142990602Y-99679172D01*
X142990609Y-99679185D01*
X143078210Y-99810288D01*
X143078213Y-99810292D01*
X143189707Y-99921786D01*
X143189711Y-99921789D01*
X143320814Y-100009390D01*
X143320827Y-100009397D01*
X143466498Y-100069735D01*
X143466503Y-100069737D01*
X143621153Y-100100499D01*
X143621156Y-100100500D01*
X143621158Y-100100500D01*
X143778844Y-100100500D01*
X143778845Y-100100499D01*
X143933497Y-100069737D01*
X144079179Y-100009394D01*
X144210289Y-99921789D01*
X144321789Y-99810289D01*
X144409394Y-99679179D01*
X144411698Y-99673618D01*
X144428319Y-99633489D01*
X144469737Y-99533497D01*
X144500500Y-99378842D01*
X144500500Y-99221158D01*
X144500500Y-99221155D01*
X144500499Y-99221153D01*
X144491728Y-99177058D01*
X144469737Y-99066503D01*
X144453122Y-99026390D01*
X144409397Y-98920827D01*
X144409390Y-98920814D01*
X144321789Y-98789711D01*
X144321786Y-98789707D01*
X144210292Y-98678213D01*
X144210288Y-98678210D01*
X144079185Y-98590609D01*
X144079172Y-98590602D01*
X143933501Y-98530264D01*
X143933489Y-98530261D01*
X143778845Y-98499500D01*
X143778842Y-98499500D01*
X143621158Y-98499500D01*
X143621155Y-98499500D01*
X143466510Y-98530261D01*
X143466498Y-98530264D01*
X143320827Y-98590602D01*
X143320814Y-98590609D01*
X143189711Y-98678210D01*
X143189707Y-98678213D01*
X143078213Y-98789707D01*
X143078210Y-98789711D01*
X142990609Y-98920814D01*
X142990602Y-98920827D01*
X142930264Y-99066498D01*
X142930261Y-99066510D01*
X142899500Y-99221153D01*
X141091284Y-99221153D01*
X141084854Y-99203913D01*
X141084850Y-99203906D01*
X140998690Y-99088812D01*
X140998687Y-99088809D01*
X140883593Y-99002649D01*
X140883586Y-99002645D01*
X140748879Y-98952403D01*
X140748872Y-98952401D01*
X140689344Y-98946000D01*
X140137500Y-98946000D01*
X140137500Y-99766988D01*
X140080493Y-99734075D01*
X139953326Y-99700000D01*
X139821674Y-99700000D01*
X139694507Y-99734075D01*
X139637500Y-99766988D01*
X139637500Y-98946000D01*
X139085655Y-98946000D01*
X139026127Y-98952401D01*
X139026120Y-98952403D01*
X138891413Y-99002645D01*
X138891406Y-99002649D01*
X138776312Y-99088809D01*
X138776309Y-99088812D01*
X138690149Y-99203906D01*
X138690145Y-99203913D01*
X138639903Y-99338620D01*
X138639901Y-99338627D01*
X138633500Y-99398155D01*
X136355574Y-99398155D01*
X136344384Y-99382754D01*
X136344380Y-99382749D01*
X136204746Y-99243115D01*
X136045004Y-99127058D01*
X136045003Y-99127057D01*
X136045001Y-99127056D01*
X135869061Y-99037409D01*
X135835145Y-99026389D01*
X135681263Y-98976389D01*
X135486236Y-98945500D01*
X135486231Y-98945500D01*
X135288769Y-98945500D01*
X135288764Y-98945500D01*
X135093736Y-98976389D01*
X134905941Y-99037408D01*
X134729995Y-99127058D01*
X134570253Y-99243115D01*
X134430615Y-99382753D01*
X134314556Y-99542497D01*
X134247745Y-99673620D01*
X134199771Y-99724415D01*
X134131950Y-99741210D01*
X134065815Y-99718672D01*
X134026777Y-99673619D01*
X133985444Y-99592499D01*
X133985443Y-99592497D01*
X133869384Y-99432753D01*
X133729746Y-99293115D01*
X133570004Y-99177058D01*
X133570003Y-99177057D01*
X133570001Y-99177056D01*
X133394061Y-99087409D01*
X133367701Y-99078844D01*
X133206263Y-99026389D01*
X133011236Y-98995500D01*
X133011231Y-98995500D01*
X132813769Y-98995500D01*
X132813764Y-98995500D01*
X132618736Y-99026389D01*
X132430941Y-99087408D01*
X132430939Y-99087408D01*
X132430939Y-99087409D01*
X132372292Y-99117291D01*
X132254995Y-99177058D01*
X132095253Y-99293115D01*
X131955615Y-99432753D01*
X131839558Y-99592495D01*
X131749908Y-99768441D01*
X131688889Y-99956236D01*
X131658000Y-100151263D01*
X129666494Y-100151263D01*
X129635623Y-99956353D01*
X129574626Y-99768626D01*
X129485020Y-99592768D01*
X129485012Y-99592755D01*
X129459042Y-99557010D01*
X129459041Y-99557009D01*
X128895462Y-100120589D01*
X128878425Y-100057007D01*
X128812599Y-99942993D01*
X128719507Y-99849901D01*
X128605493Y-99784075D01*
X128541909Y-99767037D01*
X129105489Y-99203457D01*
X129069739Y-99177483D01*
X128893873Y-99087873D01*
X128706146Y-99026876D01*
X128511197Y-98996000D01*
X128313803Y-98996000D01*
X128118853Y-99026876D01*
X127931126Y-99087873D01*
X127755262Y-99177482D01*
X127755260Y-99177483D01*
X127719510Y-99203456D01*
X127719510Y-99203457D01*
X128283091Y-99767037D01*
X128219507Y-99784075D01*
X128105493Y-99849901D01*
X128012401Y-99942993D01*
X127946575Y-100057007D01*
X127929537Y-100120590D01*
X127365957Y-99557010D01*
X127365956Y-99557010D01*
X127339983Y-99592760D01*
X127339982Y-99592762D01*
X127250373Y-99768626D01*
X127189376Y-99956353D01*
X127158500Y-100151302D01*
X123180500Y-100151302D01*
X123180500Y-97322153D01*
X129099500Y-97322153D01*
X129099500Y-97479846D01*
X129130261Y-97634489D01*
X129130264Y-97634501D01*
X129190602Y-97780172D01*
X129190609Y-97780185D01*
X129278210Y-97911288D01*
X129278213Y-97911292D01*
X129389707Y-98022786D01*
X129389711Y-98022789D01*
X129520814Y-98110390D01*
X129520827Y-98110397D01*
X129666498Y-98170735D01*
X129666503Y-98170737D01*
X129821153Y-98201499D01*
X129821156Y-98201500D01*
X129821158Y-98201500D01*
X129978844Y-98201500D01*
X129978845Y-98201499D01*
X130133497Y-98170737D01*
X130279179Y-98110394D01*
X130312149Y-98088363D01*
X130378822Y-98067486D01*
X130438819Y-98083943D01*
X130439719Y-98082260D01*
X130445090Y-98085131D01*
X130590763Y-98145470D01*
X130590768Y-98145472D01*
X130717773Y-98170735D01*
X130745418Y-98176234D01*
X130745421Y-98176235D01*
X130745423Y-98176235D01*
X130903109Y-98176235D01*
X130903110Y-98176234D01*
X131057762Y-98145472D01*
X131203444Y-98085129D01*
X131334554Y-97997524D01*
X131446054Y-97886024D01*
X131533659Y-97754914D01*
X131594002Y-97609232D01*
X131624765Y-97454577D01*
X131624765Y-97296893D01*
X131624765Y-97296890D01*
X131624764Y-97296888D01*
X131606993Y-97207547D01*
X131594002Y-97142238D01*
X131582832Y-97115270D01*
X131533662Y-96996562D01*
X131533655Y-96996549D01*
X131446054Y-96865446D01*
X131446051Y-96865442D01*
X131334557Y-96753948D01*
X131334553Y-96753945D01*
X131203450Y-96666344D01*
X131203437Y-96666337D01*
X131057766Y-96605999D01*
X131057754Y-96605996D01*
X130903110Y-96575235D01*
X130903107Y-96575235D01*
X130745423Y-96575235D01*
X130745420Y-96575235D01*
X130590775Y-96605996D01*
X130590763Y-96605999D01*
X130445093Y-96666337D01*
X130445084Y-96666342D01*
X130412115Y-96688371D01*
X130345437Y-96709247D01*
X130285456Y-96692791D01*
X130284554Y-96694479D01*
X130279172Y-96691602D01*
X130133501Y-96631264D01*
X130133489Y-96631261D01*
X129978845Y-96600500D01*
X129978842Y-96600500D01*
X129821158Y-96600500D01*
X129821155Y-96600500D01*
X129666510Y-96631261D01*
X129666498Y-96631264D01*
X129520827Y-96691602D01*
X129520814Y-96691609D01*
X129389711Y-96779210D01*
X129389707Y-96779213D01*
X129278213Y-96890707D01*
X129278210Y-96890711D01*
X129190609Y-97021814D01*
X129190602Y-97021827D01*
X129130264Y-97167498D01*
X129130261Y-97167510D01*
X129099500Y-97322153D01*
X123180500Y-97322153D01*
X123180500Y-95893753D01*
X133210000Y-95893753D01*
X133210000Y-96106246D01*
X133243242Y-96316127D01*
X133243242Y-96316130D01*
X133308904Y-96518217D01*
X133405375Y-96707550D01*
X133444728Y-96761716D01*
X134077037Y-96129408D01*
X134094075Y-96192993D01*
X134159901Y-96307007D01*
X134252993Y-96400099D01*
X134367007Y-96465925D01*
X134430590Y-96482962D01*
X133798282Y-97115269D01*
X133798282Y-97115270D01*
X133852449Y-97154624D01*
X134041782Y-97251095D01*
X134243870Y-97316757D01*
X134453754Y-97350000D01*
X134666246Y-97350000D01*
X134876127Y-97316757D01*
X134876130Y-97316757D01*
X135078217Y-97251095D01*
X135267554Y-97154622D01*
X135321716Y-97115270D01*
X135321717Y-97115270D01*
X134689408Y-96482962D01*
X134752993Y-96465925D01*
X134867007Y-96400099D01*
X134960099Y-96307007D01*
X135025925Y-96192993D01*
X135042962Y-96129409D01*
X135675270Y-96761717D01*
X135675270Y-96761716D01*
X135714622Y-96707555D01*
X135719232Y-96698507D01*
X135767205Y-96647709D01*
X135835025Y-96630912D01*
X135901161Y-96653447D01*
X135940204Y-96698504D01*
X135944949Y-96707817D01*
X136069890Y-96879786D01*
X136220213Y-97030109D01*
X136392179Y-97155048D01*
X136392181Y-97155049D01*
X136392184Y-97155051D01*
X136581588Y-97251557D01*
X136783757Y-97317246D01*
X136993713Y-97350500D01*
X136993714Y-97350500D01*
X137206286Y-97350500D01*
X137206287Y-97350500D01*
X137416243Y-97317246D01*
X137618412Y-97251557D01*
X137807816Y-97155051D01*
X137894138Y-97092335D01*
X137979786Y-97030109D01*
X137979788Y-97030106D01*
X137979792Y-97030104D01*
X138130104Y-96879792D01*
X138130106Y-96879788D01*
X138130109Y-96879786D01*
X138255048Y-96707820D01*
X138255050Y-96707817D01*
X138255051Y-96707816D01*
X138259514Y-96699054D01*
X138307488Y-96648259D01*
X138375308Y-96631463D01*
X138441444Y-96653999D01*
X138480486Y-96699056D01*
X138484951Y-96707820D01*
X138609890Y-96879786D01*
X138760213Y-97030109D01*
X138932179Y-97155048D01*
X138932181Y-97155049D01*
X138932184Y-97155051D01*
X139121588Y-97251557D01*
X139323757Y-97317246D01*
X139533713Y-97350500D01*
X139533714Y-97350500D01*
X139746286Y-97350500D01*
X139746287Y-97350500D01*
X139956243Y-97317246D01*
X140158412Y-97251557D01*
X140347816Y-97155051D01*
X140452707Y-97078844D01*
X140519784Y-97030110D01*
X140519784Y-97030109D01*
X140519792Y-97030104D01*
X140633329Y-96916566D01*
X140694648Y-96883084D01*
X140764340Y-96888068D01*
X140820274Y-96929939D01*
X140837189Y-96960917D01*
X140886202Y-97092328D01*
X140886206Y-97092335D01*
X140972452Y-97207544D01*
X140972455Y-97207547D01*
X141087664Y-97293793D01*
X141087671Y-97293797D01*
X141222517Y-97344091D01*
X141222516Y-97344091D01*
X141229444Y-97344835D01*
X141282127Y-97350500D01*
X142805163Y-97350499D01*
X142872202Y-97370184D01*
X142908265Y-97405608D01*
X142978210Y-97510288D01*
X142978213Y-97510292D01*
X143089707Y-97621786D01*
X143089711Y-97621789D01*
X143220814Y-97709390D01*
X143220827Y-97709397D01*
X143330731Y-97754920D01*
X143366503Y-97769737D01*
X143521153Y-97800499D01*
X143521156Y-97800500D01*
X143521158Y-97800500D01*
X143678844Y-97800500D01*
X143678845Y-97800499D01*
X143833497Y-97769737D01*
X143950790Y-97721153D01*
X144499500Y-97721153D01*
X144499500Y-97878846D01*
X144530261Y-98033489D01*
X144530264Y-98033501D01*
X144590602Y-98179172D01*
X144590609Y-98179185D01*
X144678210Y-98310288D01*
X144678213Y-98310292D01*
X144789707Y-98421786D01*
X144789711Y-98421789D01*
X144920814Y-98509390D01*
X144920827Y-98509397D01*
X145066498Y-98569735D01*
X145066503Y-98569737D01*
X145216131Y-98599500D01*
X145221153Y-98600499D01*
X145221156Y-98600500D01*
X145372650Y-98600500D01*
X145439689Y-98620185D01*
X145485444Y-98672989D01*
X145495388Y-98742147D01*
X145475752Y-98793391D01*
X145390609Y-98920814D01*
X145390602Y-98920827D01*
X145330264Y-99066498D01*
X145330261Y-99066510D01*
X145299500Y-99221153D01*
X145299500Y-99378846D01*
X145330261Y-99533489D01*
X145330264Y-99533501D01*
X145390602Y-99679172D01*
X145390609Y-99679185D01*
X145478210Y-99810288D01*
X145478213Y-99810292D01*
X145589707Y-99921786D01*
X145589711Y-99921789D01*
X145720814Y-100009390D01*
X145720827Y-100009397D01*
X145866498Y-100069735D01*
X145866503Y-100069737D01*
X146021153Y-100100499D01*
X146021156Y-100100500D01*
X146021158Y-100100500D01*
X146178844Y-100100500D01*
X146178845Y-100100499D01*
X146333497Y-100069737D01*
X146479179Y-100009394D01*
X146610289Y-99921789D01*
X146721789Y-99810289D01*
X146809394Y-99679179D01*
X146811698Y-99673618D01*
X146828319Y-99633489D01*
X146869737Y-99533497D01*
X146900500Y-99378842D01*
X146900500Y-99221158D01*
X146900500Y-99221155D01*
X146900499Y-99221153D01*
X148099500Y-99221153D01*
X148099500Y-99378846D01*
X148130261Y-99533489D01*
X148130264Y-99533501D01*
X148190602Y-99679172D01*
X148190609Y-99679185D01*
X148278210Y-99810288D01*
X148278213Y-99810292D01*
X148389707Y-99921786D01*
X148389711Y-99921789D01*
X148520814Y-100009390D01*
X148520827Y-100009397D01*
X148666498Y-100069735D01*
X148666503Y-100069737D01*
X148821153Y-100100499D01*
X148821156Y-100100500D01*
X148821158Y-100100500D01*
X148978844Y-100100500D01*
X148978845Y-100100499D01*
X149133497Y-100069737D01*
X149279179Y-100009394D01*
X149410289Y-99921789D01*
X149521789Y-99810289D01*
X149609394Y-99679179D01*
X149611698Y-99673618D01*
X149628319Y-99633489D01*
X149669737Y-99533497D01*
X149700500Y-99378842D01*
X149700500Y-99221158D01*
X149700500Y-99221155D01*
X149684209Y-99139258D01*
X149684209Y-99139257D01*
X149680608Y-99121153D01*
X151099500Y-99121153D01*
X151099500Y-99278846D01*
X151130261Y-99433489D01*
X151130264Y-99433501D01*
X151190602Y-99579172D01*
X151190609Y-99579185D01*
X151278210Y-99710288D01*
X151278213Y-99710292D01*
X151389707Y-99821786D01*
X151389711Y-99821789D01*
X151520814Y-99909390D01*
X151520827Y-99909397D01*
X151634191Y-99956353D01*
X151666503Y-99969737D01*
X151821153Y-100000499D01*
X151821156Y-100000500D01*
X151821158Y-100000500D01*
X151978844Y-100000500D01*
X151978845Y-100000499D01*
X152133497Y-99969737D01*
X152279179Y-99909394D01*
X152410289Y-99821789D01*
X152521789Y-99710289D01*
X152609394Y-99579179D01*
X152669737Y-99433497D01*
X152700500Y-99278842D01*
X152700500Y-99121158D01*
X152700500Y-99121155D01*
X152700499Y-99121153D01*
X152693787Y-99087408D01*
X152669737Y-98966503D01*
X152663896Y-98952401D01*
X152650953Y-98921153D01*
X155499500Y-98921153D01*
X155499500Y-99078846D01*
X155530261Y-99233489D01*
X155530264Y-99233501D01*
X155590602Y-99379172D01*
X155590609Y-99379185D01*
X155678210Y-99510288D01*
X155678213Y-99510292D01*
X155789707Y-99621786D01*
X155789711Y-99621789D01*
X155920814Y-99709390D01*
X155920827Y-99709397D01*
X155997632Y-99741210D01*
X156066503Y-99769737D01*
X156218147Y-99799901D01*
X156221153Y-99800499D01*
X156221156Y-99800500D01*
X156221158Y-99800500D01*
X156378844Y-99800500D01*
X156378845Y-99800499D01*
X156533497Y-99769737D01*
X156656780Y-99718672D01*
X156679172Y-99709397D01*
X156679172Y-99709396D01*
X156679179Y-99709394D01*
X156810289Y-99621789D01*
X156921789Y-99510289D01*
X157009394Y-99379179D01*
X157033429Y-99321153D01*
X161099500Y-99321153D01*
X161099500Y-99478846D01*
X161130261Y-99633489D01*
X161130264Y-99633501D01*
X161190602Y-99779172D01*
X161190609Y-99779185D01*
X161278210Y-99910288D01*
X161278213Y-99910292D01*
X161389707Y-100021786D01*
X161389711Y-100021789D01*
X161520814Y-100109390D01*
X161520827Y-100109397D01*
X161666498Y-100169735D01*
X161666503Y-100169737D01*
X161821153Y-100200499D01*
X161821156Y-100200500D01*
X161821158Y-100200500D01*
X161978844Y-100200500D01*
X161978845Y-100200499D01*
X162133497Y-100169737D01*
X162279179Y-100109394D01*
X162410289Y-100021789D01*
X162521789Y-99910289D01*
X162609394Y-99779179D01*
X162669737Y-99633497D01*
X162700500Y-99478842D01*
X162700500Y-99321158D01*
X162700500Y-99321155D01*
X162700499Y-99321153D01*
X162694922Y-99293115D01*
X162669737Y-99166503D01*
X162658452Y-99139258D01*
X162609397Y-99020827D01*
X162609390Y-99020814D01*
X162521789Y-98889711D01*
X162521786Y-98889707D01*
X162410292Y-98778213D01*
X162410288Y-98778210D01*
X162279185Y-98690609D01*
X162279172Y-98690602D01*
X162133501Y-98630264D01*
X162133489Y-98630261D01*
X161978845Y-98599500D01*
X161978842Y-98599500D01*
X161821158Y-98599500D01*
X161821155Y-98599500D01*
X161666510Y-98630261D01*
X161666498Y-98630264D01*
X161520827Y-98690602D01*
X161520814Y-98690609D01*
X161389711Y-98778210D01*
X161389707Y-98778213D01*
X161278213Y-98889707D01*
X161278210Y-98889711D01*
X161190609Y-99020814D01*
X161190602Y-99020827D01*
X161130264Y-99166498D01*
X161130261Y-99166510D01*
X161099500Y-99321153D01*
X157033429Y-99321153D01*
X157055603Y-99267621D01*
X157055605Y-99267614D01*
X157069737Y-99233497D01*
X157100500Y-99078842D01*
X157100500Y-98921158D01*
X157100500Y-98921155D01*
X157100499Y-98921153D01*
X157080543Y-98820827D01*
X157069737Y-98766503D01*
X157069735Y-98766498D01*
X157009397Y-98620827D01*
X157009390Y-98620814D01*
X156921789Y-98489711D01*
X156921786Y-98489707D01*
X156810292Y-98378213D01*
X156810288Y-98378210D01*
X156679185Y-98290609D01*
X156679172Y-98290602D01*
X156533501Y-98230264D01*
X156533489Y-98230261D01*
X156378845Y-98199500D01*
X156378842Y-98199500D01*
X156221158Y-98199500D01*
X156221155Y-98199500D01*
X156066510Y-98230261D01*
X156066498Y-98230264D01*
X155920827Y-98290602D01*
X155920814Y-98290609D01*
X155789711Y-98378210D01*
X155789707Y-98378213D01*
X155678213Y-98489707D01*
X155678210Y-98489711D01*
X155590609Y-98620814D01*
X155590602Y-98620827D01*
X155530264Y-98766498D01*
X155530261Y-98766510D01*
X155499500Y-98921153D01*
X152650953Y-98921153D01*
X152609397Y-98820827D01*
X152609390Y-98820814D01*
X152521789Y-98689711D01*
X152521786Y-98689707D01*
X152410292Y-98578213D01*
X152410288Y-98578210D01*
X152279185Y-98490609D01*
X152279172Y-98490602D01*
X152133501Y-98430264D01*
X152133489Y-98430261D01*
X151978845Y-98399500D01*
X151978842Y-98399500D01*
X151821158Y-98399500D01*
X151821155Y-98399500D01*
X151666510Y-98430261D01*
X151666498Y-98430264D01*
X151520827Y-98490602D01*
X151520814Y-98490609D01*
X151389711Y-98578210D01*
X151389707Y-98578213D01*
X151278213Y-98689707D01*
X151278210Y-98689711D01*
X151190609Y-98820814D01*
X151190602Y-98820827D01*
X151130264Y-98966498D01*
X151130261Y-98966510D01*
X151099500Y-99121153D01*
X149680608Y-99121153D01*
X149678834Y-99112237D01*
X149669737Y-99066503D01*
X149653122Y-99026390D01*
X149609397Y-98920827D01*
X149609390Y-98920814D01*
X149521789Y-98789711D01*
X149521786Y-98789707D01*
X149410292Y-98678213D01*
X149410288Y-98678210D01*
X149279185Y-98590609D01*
X149279172Y-98590602D01*
X149133501Y-98530264D01*
X149133489Y-98530261D01*
X148978845Y-98499500D01*
X148978842Y-98499500D01*
X148821158Y-98499500D01*
X148821155Y-98499500D01*
X148666510Y-98530261D01*
X148666498Y-98530264D01*
X148520827Y-98590602D01*
X148520814Y-98590609D01*
X148389711Y-98678210D01*
X148389707Y-98678213D01*
X148278213Y-98789707D01*
X148278210Y-98789711D01*
X148190609Y-98920814D01*
X148190602Y-98920827D01*
X148130264Y-99066498D01*
X148130261Y-99066510D01*
X148099500Y-99221153D01*
X146900499Y-99221153D01*
X146891728Y-99177058D01*
X146869737Y-99066503D01*
X146853122Y-99026390D01*
X146809397Y-98920827D01*
X146809390Y-98920814D01*
X146721789Y-98789711D01*
X146721786Y-98789707D01*
X146610292Y-98678213D01*
X146610288Y-98678210D01*
X146479185Y-98590609D01*
X146479172Y-98590602D01*
X146333501Y-98530264D01*
X146333489Y-98530261D01*
X146178845Y-98499500D01*
X146178842Y-98499500D01*
X146027350Y-98499500D01*
X145960311Y-98479815D01*
X145914556Y-98427011D01*
X145904612Y-98357853D01*
X145924248Y-98306609D01*
X146009390Y-98179185D01*
X146009390Y-98179184D01*
X146009394Y-98179179D01*
X146010614Y-98176235D01*
X146048349Y-98085132D01*
X146069737Y-98033497D01*
X146080563Y-97979072D01*
X146112947Y-97917161D01*
X146173663Y-97882587D01*
X146226372Y-97881646D01*
X146321155Y-97900500D01*
X146321158Y-97900500D01*
X146478844Y-97900500D01*
X146478845Y-97900499D01*
X146633497Y-97869737D01*
X146779179Y-97809394D01*
X146910289Y-97721789D01*
X147021789Y-97610289D01*
X147109394Y-97479179D01*
X147169737Y-97333497D01*
X147200500Y-97178842D01*
X147200500Y-97021158D01*
X147200500Y-97021155D01*
X147200499Y-97021153D01*
X147196192Y-96999500D01*
X147169737Y-96866503D01*
X147133580Y-96779211D01*
X147109397Y-96720827D01*
X147109390Y-96720814D01*
X147021789Y-96589711D01*
X147021786Y-96589707D01*
X146910292Y-96478213D01*
X146910288Y-96478210D01*
X146779185Y-96390609D01*
X146779172Y-96390602D01*
X146633501Y-96330264D01*
X146633489Y-96330261D01*
X146478845Y-96299500D01*
X146478842Y-96299500D01*
X146321158Y-96299500D01*
X146321155Y-96299500D01*
X146166510Y-96330261D01*
X146166498Y-96330264D01*
X146020827Y-96390602D01*
X146020814Y-96390609D01*
X145889711Y-96478210D01*
X145889707Y-96478213D01*
X145778213Y-96589707D01*
X145778210Y-96589711D01*
X145690609Y-96720814D01*
X145690602Y-96720827D01*
X145630264Y-96866498D01*
X145630261Y-96866507D01*
X145619436Y-96920929D01*
X145587050Y-96982840D01*
X145526334Y-97017413D01*
X145473628Y-97018353D01*
X145378846Y-96999500D01*
X145378842Y-96999500D01*
X145221158Y-96999500D01*
X145221155Y-96999500D01*
X145066510Y-97030261D01*
X145066498Y-97030264D01*
X144920827Y-97090602D01*
X144920814Y-97090609D01*
X144789711Y-97178210D01*
X144789707Y-97178213D01*
X144678213Y-97289707D01*
X144678210Y-97289711D01*
X144590609Y-97420814D01*
X144590602Y-97420827D01*
X144530264Y-97566498D01*
X144530261Y-97566510D01*
X144499500Y-97721153D01*
X143950790Y-97721153D01*
X143979179Y-97709394D01*
X144110289Y-97621789D01*
X144221789Y-97510289D01*
X144309394Y-97379179D01*
X144369737Y-97233497D01*
X144400500Y-97078842D01*
X144400500Y-96921158D01*
X144400500Y-96921155D01*
X144400499Y-96921153D01*
X144393918Y-96888068D01*
X144369737Y-96766503D01*
X144341800Y-96699056D01*
X144309397Y-96620827D01*
X144309390Y-96620814D01*
X144221789Y-96489711D01*
X144221786Y-96489707D01*
X144110292Y-96378213D01*
X144110288Y-96378210D01*
X143979185Y-96290609D01*
X143979172Y-96290602D01*
X143833501Y-96230264D01*
X143833489Y-96230261D01*
X143678845Y-96199500D01*
X143678842Y-96199500D01*
X143654500Y-96199500D01*
X143587461Y-96179815D01*
X143541706Y-96127011D01*
X143530500Y-96075500D01*
X143530499Y-95102129D01*
X143530498Y-95102123D01*
X143524091Y-95042516D01*
X143473797Y-94907671D01*
X143473793Y-94907664D01*
X143387547Y-94792455D01*
X143387544Y-94792452D01*
X143272335Y-94706206D01*
X143272328Y-94706202D01*
X143137482Y-94655908D01*
X143137483Y-94655908D01*
X143077883Y-94649501D01*
X143077881Y-94649500D01*
X143077873Y-94649500D01*
X143077864Y-94649500D01*
X141282129Y-94649500D01*
X141282123Y-94649501D01*
X141222516Y-94655908D01*
X141087671Y-94706202D01*
X141087664Y-94706206D01*
X140972455Y-94792452D01*
X140972452Y-94792455D01*
X140886206Y-94907664D01*
X140886203Y-94907669D01*
X140837189Y-95039083D01*
X140795317Y-95095016D01*
X140729853Y-95119433D01*
X140661580Y-95104581D01*
X140633326Y-95083430D01*
X140519786Y-94969890D01*
X140347820Y-94844951D01*
X140158414Y-94748444D01*
X140158413Y-94748443D01*
X140158412Y-94748443D01*
X139956243Y-94682754D01*
X139956241Y-94682753D01*
X139956240Y-94682753D01*
X139794957Y-94657208D01*
X139746287Y-94649500D01*
X139533713Y-94649500D01*
X139485042Y-94657208D01*
X139323760Y-94682753D01*
X139121585Y-94748444D01*
X138932179Y-94844951D01*
X138760213Y-94969890D01*
X138609890Y-95120213D01*
X138484949Y-95292182D01*
X138480484Y-95300946D01*
X138432509Y-95351742D01*
X138364688Y-95368536D01*
X138298553Y-95345998D01*
X138259516Y-95300946D01*
X138255050Y-95292182D01*
X138130109Y-95120213D01*
X137979786Y-94969890D01*
X137807820Y-94844951D01*
X137618414Y-94748444D01*
X137618413Y-94748443D01*
X137618412Y-94748443D01*
X137416243Y-94682754D01*
X137416241Y-94682753D01*
X137416240Y-94682753D01*
X137254957Y-94657208D01*
X137206287Y-94649500D01*
X136993713Y-94649500D01*
X136945042Y-94657208D01*
X136783760Y-94682753D01*
X136581585Y-94748444D01*
X136392179Y-94844951D01*
X136220213Y-94969890D01*
X136069890Y-95120213D01*
X135944949Y-95292182D01*
X135940202Y-95301499D01*
X135892227Y-95352293D01*
X135824405Y-95369087D01*
X135758271Y-95346548D01*
X135719234Y-95301495D01*
X135714626Y-95292452D01*
X135675270Y-95238282D01*
X135675269Y-95238282D01*
X135042962Y-95870590D01*
X135025925Y-95807007D01*
X134960099Y-95692993D01*
X134867007Y-95599901D01*
X134752993Y-95534075D01*
X134689409Y-95517037D01*
X135321716Y-94884728D01*
X135267550Y-94845375D01*
X135078217Y-94748904D01*
X135058294Y-94742431D01*
X135000619Y-94702994D01*
X134973420Y-94638635D01*
X134985335Y-94569789D01*
X135032579Y-94518313D01*
X135096612Y-94500500D01*
X135178844Y-94500500D01*
X135178845Y-94500499D01*
X135333497Y-94469737D01*
X135479179Y-94409394D01*
X135610289Y-94321789D01*
X135721789Y-94210289D01*
X135809394Y-94079179D01*
X135869737Y-93933497D01*
X135900500Y-93778842D01*
X135900500Y-93621158D01*
X135900500Y-93621155D01*
X135900499Y-93621153D01*
X135869738Y-93466510D01*
X135869737Y-93466503D01*
X135869735Y-93466498D01*
X135809397Y-93320827D01*
X135809390Y-93320814D01*
X135721789Y-93189711D01*
X135721786Y-93189707D01*
X135610292Y-93078213D01*
X135610288Y-93078210D01*
X135479185Y-92990609D01*
X135479172Y-92990602D01*
X135333501Y-92930264D01*
X135333489Y-92930261D01*
X135178845Y-92899500D01*
X135178842Y-92899500D01*
X135021158Y-92899500D01*
X135021155Y-92899500D01*
X134866510Y-92930261D01*
X134866498Y-92930264D01*
X134720827Y-92990602D01*
X134720814Y-92990609D01*
X134589711Y-93078210D01*
X134589707Y-93078213D01*
X134478213Y-93189707D01*
X134478210Y-93189711D01*
X134390609Y-93320814D01*
X134390602Y-93320827D01*
X134330264Y-93466498D01*
X134330261Y-93466510D01*
X134299500Y-93621153D01*
X134299500Y-93778846D01*
X134330261Y-93933489D01*
X134330264Y-93933501D01*
X134390602Y-94079172D01*
X134390609Y-94079185D01*
X134478210Y-94210288D01*
X134478213Y-94210292D01*
X134589707Y-94321786D01*
X134589711Y-94321789D01*
X134720814Y-94409390D01*
X134720816Y-94409391D01*
X134720821Y-94409394D01*
X134727441Y-94412136D01*
X134781845Y-94455974D01*
X134803912Y-94522268D01*
X134786635Y-94589968D01*
X134735500Y-94637580D01*
X134670265Y-94650316D01*
X134666248Y-94650000D01*
X134453754Y-94650000D01*
X134243872Y-94683242D01*
X134243869Y-94683242D01*
X134041782Y-94748904D01*
X133852439Y-94845380D01*
X133798282Y-94884727D01*
X133798282Y-94884728D01*
X134430591Y-95517037D01*
X134367007Y-95534075D01*
X134252993Y-95599901D01*
X134159901Y-95692993D01*
X134094075Y-95807007D01*
X134077037Y-95870591D01*
X133444728Y-95238282D01*
X133444727Y-95238282D01*
X133405380Y-95292439D01*
X133308904Y-95481782D01*
X133243242Y-95683869D01*
X133243242Y-95683872D01*
X133210000Y-95893753D01*
X123180500Y-95893753D01*
X123180500Y-91321153D01*
X159099500Y-91321153D01*
X159099500Y-91478846D01*
X159130261Y-91633489D01*
X159130264Y-91633501D01*
X159190602Y-91779172D01*
X159190609Y-91779185D01*
X159278210Y-91910288D01*
X159278213Y-91910292D01*
X159389707Y-92021786D01*
X159389711Y-92021789D01*
X159520814Y-92109390D01*
X159520827Y-92109397D01*
X159666498Y-92169735D01*
X159666503Y-92169737D01*
X159821153Y-92200499D01*
X159821156Y-92200500D01*
X159821158Y-92200500D01*
X159978844Y-92200500D01*
X159978845Y-92200499D01*
X160133497Y-92169737D01*
X160279179Y-92109394D01*
X160410289Y-92021789D01*
X160521789Y-91910289D01*
X160609394Y-91779179D01*
X160669737Y-91633497D01*
X160700500Y-91478842D01*
X160700500Y-91321158D01*
X160700500Y-91321155D01*
X160700499Y-91321153D01*
X160669738Y-91166510D01*
X160669737Y-91166503D01*
X160669735Y-91166498D01*
X160609397Y-91020827D01*
X160609390Y-91020814D01*
X160566864Y-90957171D01*
X160521789Y-90889711D01*
X160410289Y-90778211D01*
X160407802Y-90776549D01*
X160407799Y-90776546D01*
X160279185Y-90690609D01*
X160279172Y-90690602D01*
X160133501Y-90630264D01*
X160133489Y-90630261D01*
X159978845Y-90599500D01*
X159978842Y-90599500D01*
X159821158Y-90599500D01*
X159821155Y-90599500D01*
X159666510Y-90630261D01*
X159666498Y-90630264D01*
X159520827Y-90690602D01*
X159520814Y-90690609D01*
X159389711Y-90778210D01*
X159389707Y-90778213D01*
X159278213Y-90889707D01*
X159278210Y-90889711D01*
X159190609Y-91020814D01*
X159190602Y-91020827D01*
X159130264Y-91166498D01*
X159130261Y-91166510D01*
X159099500Y-91321153D01*
X123180500Y-91321153D01*
X123180500Y-89829917D01*
X123200185Y-89762878D01*
X123252989Y-89717123D01*
X123322147Y-89707179D01*
X123347833Y-89713735D01*
X123438620Y-89747596D01*
X123438627Y-89747598D01*
X123498155Y-89753999D01*
X123498172Y-89754000D01*
X124050000Y-89754000D01*
X124050000Y-88933012D01*
X124107007Y-88965925D01*
X124234174Y-89000000D01*
X124365826Y-89000000D01*
X124492993Y-88965925D01*
X124550000Y-88933012D01*
X124550000Y-89754000D01*
X125101828Y-89754000D01*
X125101844Y-89753999D01*
X125161372Y-89747598D01*
X125161379Y-89747596D01*
X125296086Y-89697354D01*
X125296093Y-89697350D01*
X125411187Y-89611190D01*
X125411190Y-89611187D01*
X125497350Y-89496093D01*
X125497354Y-89496086D01*
X125547596Y-89361379D01*
X125547598Y-89361372D01*
X125553999Y-89301844D01*
X125554000Y-89301827D01*
X125554000Y-88750000D01*
X124733012Y-88750000D01*
X124765925Y-88692993D01*
X124800000Y-88565826D01*
X124800000Y-88434174D01*
X124791181Y-88401263D01*
X127545500Y-88401263D01*
X127545500Y-88598736D01*
X127576389Y-88793763D01*
X127637408Y-88981558D01*
X127637409Y-88981561D01*
X127727056Y-89157501D01*
X127727058Y-89157504D01*
X127843115Y-89317246D01*
X127982753Y-89456884D01*
X128123843Y-89559390D01*
X128142499Y-89572944D01*
X128318439Y-89662591D01*
X128425417Y-89697350D01*
X128506236Y-89723610D01*
X128701264Y-89754500D01*
X128701269Y-89754500D01*
X128898736Y-89754500D01*
X129093763Y-89723610D01*
X129124155Y-89713735D01*
X129281561Y-89662591D01*
X129457501Y-89572944D01*
X129563288Y-89496086D01*
X129617246Y-89456884D01*
X129617248Y-89456881D01*
X129617252Y-89456879D01*
X129756879Y-89317252D01*
X129756881Y-89317248D01*
X129756884Y-89317246D01*
X129820872Y-89229172D01*
X129872944Y-89157501D01*
X129962591Y-88981561D01*
X130023610Y-88793763D01*
X130027191Y-88771153D01*
X131249500Y-88771153D01*
X131249500Y-88928846D01*
X131280261Y-89083489D01*
X131280264Y-89083501D01*
X131340602Y-89229172D01*
X131340609Y-89229185D01*
X131428210Y-89360288D01*
X131428213Y-89360292D01*
X131539707Y-89471786D01*
X131539711Y-89471789D01*
X131670814Y-89559390D01*
X131670827Y-89559397D01*
X131795977Y-89611235D01*
X131816503Y-89619737D01*
X131971153Y-89650499D01*
X131971156Y-89650500D01*
X131971158Y-89650500D01*
X132128844Y-89650500D01*
X132128845Y-89650499D01*
X132283497Y-89619737D01*
X132400790Y-89571153D01*
X157449500Y-89571153D01*
X157449500Y-89728846D01*
X157480261Y-89883489D01*
X157480264Y-89883501D01*
X157540602Y-90029172D01*
X157540609Y-90029185D01*
X157628210Y-90160288D01*
X157628213Y-90160292D01*
X157739707Y-90271786D01*
X157739711Y-90271789D01*
X157870814Y-90359390D01*
X157870827Y-90359397D01*
X158016498Y-90419735D01*
X158016503Y-90419737D01*
X158171153Y-90450499D01*
X158171156Y-90450500D01*
X158171158Y-90450500D01*
X158328844Y-90450500D01*
X158328845Y-90450499D01*
X158483497Y-90419737D01*
X158629179Y-90359394D01*
X158760289Y-90271789D01*
X158871789Y-90160289D01*
X158950372Y-90042681D01*
X160426500Y-90042681D01*
X160426500Y-90200374D01*
X160457261Y-90355017D01*
X160457264Y-90355029D01*
X160517602Y-90500700D01*
X160517609Y-90500713D01*
X160588227Y-90606400D01*
X160588230Y-90606403D01*
X160605211Y-90631817D01*
X160716711Y-90743317D01*
X160719197Y-90744978D01*
X160719200Y-90744981D01*
X160847814Y-90830918D01*
X160847827Y-90830925D01*
X160989751Y-90889711D01*
X160993503Y-90891265D01*
X161113465Y-90915127D01*
X161148153Y-90922027D01*
X161148156Y-90922028D01*
X161148158Y-90922028D01*
X161305844Y-90922028D01*
X161305845Y-90922027D01*
X161460497Y-90891265D01*
X161606179Y-90830922D01*
X161737289Y-90743317D01*
X161848789Y-90631817D01*
X161936394Y-90500707D01*
X161996737Y-90355025D01*
X162027500Y-90200370D01*
X162027500Y-90042686D01*
X162027500Y-90042683D01*
X162027499Y-90042681D01*
X161996738Y-89888038D01*
X161996737Y-89888031D01*
X161972666Y-89829917D01*
X161936397Y-89742355D01*
X161936390Y-89742342D01*
X161848789Y-89611239D01*
X161848786Y-89611235D01*
X161737292Y-89499741D01*
X161737288Y-89499738D01*
X161606185Y-89412137D01*
X161606172Y-89412130D01*
X161460501Y-89351792D01*
X161460489Y-89351789D01*
X161305845Y-89321028D01*
X161305842Y-89321028D01*
X161148158Y-89321028D01*
X161148155Y-89321028D01*
X160993510Y-89351789D01*
X160993498Y-89351792D01*
X160847827Y-89412130D01*
X160847814Y-89412137D01*
X160716711Y-89499738D01*
X160716707Y-89499741D01*
X160605213Y-89611235D01*
X160605210Y-89611239D01*
X160517609Y-89742342D01*
X160517602Y-89742355D01*
X160457264Y-89888026D01*
X160457261Y-89888038D01*
X160426500Y-90042681D01*
X158950372Y-90042681D01*
X158959394Y-90029179D01*
X159019737Y-89883497D01*
X159050500Y-89728842D01*
X159050500Y-89571158D01*
X159050500Y-89571155D01*
X159050499Y-89571153D01*
X159036294Y-89499739D01*
X159019737Y-89416503D01*
X158992932Y-89351789D01*
X158959397Y-89270827D01*
X158959390Y-89270814D01*
X158871789Y-89139711D01*
X158871786Y-89139707D01*
X158760292Y-89028213D01*
X158760288Y-89028210D01*
X158629185Y-88940609D01*
X158629172Y-88940602D01*
X158483501Y-88880264D01*
X158483489Y-88880261D01*
X158328845Y-88849500D01*
X158328842Y-88849500D01*
X158171158Y-88849500D01*
X158171155Y-88849500D01*
X158016510Y-88880261D01*
X158016498Y-88880264D01*
X157870827Y-88940602D01*
X157870814Y-88940609D01*
X157739711Y-89028210D01*
X157739707Y-89028213D01*
X157628213Y-89139707D01*
X157628210Y-89139711D01*
X157540609Y-89270814D01*
X157540602Y-89270827D01*
X157480264Y-89416498D01*
X157480261Y-89416510D01*
X157449500Y-89571153D01*
X132400790Y-89571153D01*
X132429179Y-89559394D01*
X132560289Y-89471789D01*
X132671789Y-89360289D01*
X132759394Y-89229179D01*
X132819737Y-89083497D01*
X132850500Y-88928842D01*
X132850500Y-88771158D01*
X132850500Y-88771155D01*
X132850499Y-88771153D01*
X132819738Y-88616510D01*
X132819737Y-88616503D01*
X132798746Y-88565826D01*
X132759397Y-88470827D01*
X132759390Y-88470814D01*
X132671789Y-88339711D01*
X132671786Y-88339707D01*
X132560292Y-88228213D01*
X132560288Y-88228210D01*
X132429185Y-88140609D01*
X132429172Y-88140602D01*
X132283501Y-88080264D01*
X132283489Y-88080261D01*
X132128845Y-88049500D01*
X132128842Y-88049500D01*
X131971158Y-88049500D01*
X131971155Y-88049500D01*
X131816510Y-88080261D01*
X131816498Y-88080264D01*
X131670827Y-88140602D01*
X131670814Y-88140609D01*
X131539711Y-88228210D01*
X131539707Y-88228213D01*
X131428213Y-88339707D01*
X131428210Y-88339711D01*
X131340609Y-88470814D01*
X131340602Y-88470827D01*
X131280264Y-88616498D01*
X131280261Y-88616510D01*
X131249500Y-88771153D01*
X130027191Y-88771153D01*
X130028988Y-88759804D01*
X130031228Y-88745667D01*
X130031228Y-88745666D01*
X130054500Y-88598736D01*
X130054500Y-88401263D01*
X130023610Y-88206236D01*
X129982679Y-88080264D01*
X129962591Y-88018439D01*
X129872944Y-87842499D01*
X129865486Y-87832234D01*
X129756884Y-87682753D01*
X129617246Y-87543115D01*
X129457504Y-87427058D01*
X129457503Y-87427057D01*
X129457501Y-87427056D01*
X129281561Y-87337409D01*
X129281558Y-87337408D01*
X129093763Y-87276389D01*
X128898736Y-87245500D01*
X128898731Y-87245500D01*
X128701269Y-87245500D01*
X128701264Y-87245500D01*
X128506236Y-87276389D01*
X128318441Y-87337408D01*
X128142495Y-87427058D01*
X127982753Y-87543115D01*
X127843115Y-87682753D01*
X127727058Y-87842495D01*
X127637408Y-88018441D01*
X127576389Y-88206236D01*
X127545500Y-88401263D01*
X124791181Y-88401263D01*
X124765925Y-88307007D01*
X124733012Y-88250000D01*
X125554000Y-88250000D01*
X125554000Y-87698172D01*
X125553999Y-87698155D01*
X125547598Y-87638627D01*
X125547596Y-87638620D01*
X125497354Y-87503913D01*
X125497350Y-87503906D01*
X125411190Y-87388812D01*
X125411187Y-87388809D01*
X125296093Y-87302649D01*
X125296086Y-87302645D01*
X125161379Y-87252403D01*
X125161372Y-87252401D01*
X125101844Y-87246000D01*
X124550000Y-87246000D01*
X124550000Y-88066988D01*
X124492993Y-88034075D01*
X124365826Y-88000000D01*
X124234174Y-88000000D01*
X124107007Y-88034075D01*
X124050000Y-88066988D01*
X124050000Y-87246000D01*
X123498155Y-87246000D01*
X123438627Y-87252401D01*
X123438617Y-87252403D01*
X123347832Y-87286264D01*
X123278141Y-87291248D01*
X123216818Y-87257762D01*
X123183334Y-87196439D01*
X123180500Y-87170082D01*
X123180500Y-83351153D01*
X131199500Y-83351153D01*
X131199500Y-83508846D01*
X131230261Y-83663489D01*
X131230264Y-83663501D01*
X131290602Y-83809172D01*
X131290609Y-83809185D01*
X131378210Y-83940288D01*
X131378213Y-83940292D01*
X131489707Y-84051786D01*
X131489711Y-84051789D01*
X131579669Y-84111898D01*
X131624474Y-84165511D01*
X131633181Y-84234836D01*
X131603026Y-84297863D01*
X131579669Y-84318102D01*
X131489711Y-84378210D01*
X131489707Y-84378213D01*
X131378213Y-84489707D01*
X131378210Y-84489711D01*
X131290609Y-84620814D01*
X131290602Y-84620827D01*
X131230264Y-84766498D01*
X131230261Y-84766510D01*
X131199500Y-84921153D01*
X131199500Y-85078846D01*
X131230261Y-85233489D01*
X131230264Y-85233501D01*
X131290602Y-85379172D01*
X131290609Y-85379185D01*
X131378210Y-85510288D01*
X131378213Y-85510292D01*
X131489707Y-85621786D01*
X131489711Y-85621789D01*
X131620814Y-85709390D01*
X131620827Y-85709397D01*
X131766498Y-85769735D01*
X131766503Y-85769737D01*
X131921153Y-85800499D01*
X131921156Y-85800500D01*
X131921158Y-85800500D01*
X132078844Y-85800500D01*
X132078845Y-85800499D01*
X132233497Y-85769737D01*
X132379179Y-85709394D01*
X132510289Y-85621789D01*
X132621789Y-85510289D01*
X132709394Y-85379179D01*
X132769737Y-85233497D01*
X132800500Y-85078842D01*
X132800500Y-84921158D01*
X132800500Y-84921155D01*
X132800499Y-84921153D01*
X132769737Y-84766503D01*
X132750955Y-84721158D01*
X132750953Y-84721153D01*
X151699500Y-84721153D01*
X151699500Y-84878846D01*
X151730261Y-85033489D01*
X151730264Y-85033501D01*
X151790602Y-85179172D01*
X151790609Y-85179185D01*
X151878210Y-85310288D01*
X151878213Y-85310292D01*
X151989707Y-85421786D01*
X151989711Y-85421789D01*
X152120814Y-85509390D01*
X152120827Y-85509397D01*
X152266498Y-85569735D01*
X152266503Y-85569737D01*
X152421153Y-85600499D01*
X152421156Y-85600500D01*
X152421158Y-85600500D01*
X152578844Y-85600500D01*
X152578845Y-85600499D01*
X152733497Y-85569737D01*
X152879179Y-85509394D01*
X153010289Y-85421789D01*
X153121789Y-85310289D01*
X153209394Y-85179179D01*
X153269737Y-85033497D01*
X153300500Y-84878842D01*
X153300500Y-84721158D01*
X153300500Y-84721155D01*
X153300499Y-84721153D01*
X153280543Y-84620827D01*
X153269737Y-84566503D01*
X153242398Y-84500500D01*
X153209397Y-84420827D01*
X153209390Y-84420814D01*
X153121789Y-84289711D01*
X153121786Y-84289707D01*
X153010292Y-84178213D01*
X153010288Y-84178210D01*
X152879185Y-84090609D01*
X152879172Y-84090602D01*
X152733501Y-84030264D01*
X152733489Y-84030261D01*
X152578845Y-83999500D01*
X152578842Y-83999500D01*
X152421158Y-83999500D01*
X152421155Y-83999500D01*
X152266510Y-84030261D01*
X152266498Y-84030264D01*
X152120827Y-84090602D01*
X152120814Y-84090609D01*
X151989711Y-84178210D01*
X151989707Y-84178213D01*
X151878213Y-84289707D01*
X151878210Y-84289711D01*
X151790609Y-84420814D01*
X151790602Y-84420827D01*
X151730264Y-84566498D01*
X151730261Y-84566510D01*
X151699500Y-84721153D01*
X132750953Y-84721153D01*
X132709397Y-84620827D01*
X132709390Y-84620814D01*
X132621789Y-84489711D01*
X132621786Y-84489707D01*
X132510292Y-84378213D01*
X132510288Y-84378210D01*
X132420330Y-84318102D01*
X132375525Y-84264490D01*
X132366818Y-84195165D01*
X132396972Y-84132138D01*
X132420330Y-84111898D01*
X132469307Y-84079172D01*
X132510289Y-84051789D01*
X132621789Y-83940289D01*
X132709394Y-83809179D01*
X132769737Y-83663497D01*
X132778160Y-83621153D01*
X154199500Y-83621153D01*
X154199500Y-83778846D01*
X154230261Y-83933489D01*
X154230264Y-83933501D01*
X154290602Y-84079172D01*
X154290609Y-84079185D01*
X154378210Y-84210288D01*
X154378213Y-84210292D01*
X154489707Y-84321786D01*
X154489711Y-84321789D01*
X154620814Y-84409390D01*
X154620827Y-84409397D01*
X154766498Y-84469735D01*
X154766503Y-84469737D01*
X154921153Y-84500499D01*
X154921156Y-84500500D01*
X154921158Y-84500500D01*
X155078844Y-84500500D01*
X155078845Y-84500499D01*
X155233497Y-84469737D01*
X155351592Y-84420821D01*
X155379172Y-84409397D01*
X155379172Y-84409396D01*
X155379179Y-84409394D01*
X155510289Y-84321789D01*
X155621789Y-84210289D01*
X155709394Y-84079179D01*
X155769737Y-83933497D01*
X155800500Y-83778842D01*
X155800500Y-83621158D01*
X155800500Y-83621155D01*
X155800499Y-83621153D01*
X155795674Y-83596897D01*
X155769737Y-83466503D01*
X155721958Y-83351153D01*
X155709397Y-83320827D01*
X155709390Y-83320814D01*
X155621789Y-83189711D01*
X155621786Y-83189707D01*
X155510292Y-83078213D01*
X155510288Y-83078210D01*
X155379185Y-82990609D01*
X155379172Y-82990602D01*
X155233501Y-82930264D01*
X155233491Y-82930261D01*
X155202933Y-82924183D01*
X155202932Y-82924182D01*
X155078845Y-82899500D01*
X155078842Y-82899500D01*
X154921158Y-82899500D01*
X154921155Y-82899500D01*
X154766510Y-82930261D01*
X154766498Y-82930264D01*
X154620827Y-82990602D01*
X154620814Y-82990609D01*
X154489711Y-83078210D01*
X154489707Y-83078213D01*
X154378213Y-83189707D01*
X154378210Y-83189711D01*
X154290609Y-83320814D01*
X154290602Y-83320827D01*
X154230264Y-83466498D01*
X154230261Y-83466510D01*
X154199500Y-83621153D01*
X132778160Y-83621153D01*
X132782985Y-83596897D01*
X132784183Y-83590875D01*
X132784183Y-83590874D01*
X132800500Y-83508844D01*
X132800500Y-83351155D01*
X132800499Y-83351153D01*
X132794467Y-83320827D01*
X132769737Y-83196503D01*
X132755498Y-83162126D01*
X132709397Y-83050827D01*
X132709390Y-83050814D01*
X132621789Y-82919711D01*
X132621786Y-82919707D01*
X132510732Y-82808653D01*
X160799500Y-82808653D01*
X160799500Y-82966346D01*
X160830261Y-83120989D01*
X160830264Y-83121001D01*
X160890602Y-83266672D01*
X160890609Y-83266685D01*
X160978210Y-83397788D01*
X160978213Y-83397792D01*
X161089707Y-83509286D01*
X161089711Y-83509289D01*
X161220814Y-83596890D01*
X161220827Y-83596897D01*
X161366498Y-83657235D01*
X161366503Y-83657237D01*
X161521153Y-83687999D01*
X161521156Y-83688000D01*
X161521158Y-83688000D01*
X161678844Y-83688000D01*
X161678845Y-83687999D01*
X161833497Y-83657237D01*
X161979179Y-83596894D01*
X162110289Y-83509289D01*
X162221789Y-83397789D01*
X162309394Y-83266679D01*
X162369737Y-83120997D01*
X162400500Y-82966342D01*
X162400500Y-82808658D01*
X162400500Y-82808655D01*
X162400499Y-82808653D01*
X162382984Y-82720602D01*
X162369737Y-82654003D01*
X162359588Y-82629500D01*
X162309397Y-82508327D01*
X162309390Y-82508314D01*
X162221789Y-82377211D01*
X162221786Y-82377207D01*
X162110292Y-82265713D01*
X162110288Y-82265710D01*
X161979185Y-82178109D01*
X161979172Y-82178102D01*
X161833501Y-82117764D01*
X161833489Y-82117761D01*
X161678845Y-82087000D01*
X161678842Y-82087000D01*
X161521158Y-82087000D01*
X161521155Y-82087000D01*
X161366510Y-82117761D01*
X161366498Y-82117764D01*
X161220827Y-82178102D01*
X161220814Y-82178109D01*
X161089711Y-82265710D01*
X161089707Y-82265713D01*
X160978213Y-82377207D01*
X160978210Y-82377211D01*
X160890609Y-82508314D01*
X160890602Y-82508327D01*
X160830264Y-82653998D01*
X160830261Y-82654010D01*
X160799500Y-82808653D01*
X132510732Y-82808653D01*
X132510292Y-82808213D01*
X132510288Y-82808210D01*
X132379185Y-82720609D01*
X132379172Y-82720602D01*
X132233501Y-82660264D01*
X132233489Y-82660261D01*
X132078845Y-82629500D01*
X132078842Y-82629500D01*
X131921158Y-82629500D01*
X131921155Y-82629500D01*
X131766510Y-82660261D01*
X131766498Y-82660264D01*
X131620827Y-82720602D01*
X131620814Y-82720609D01*
X131489711Y-82808210D01*
X131489707Y-82808213D01*
X131378213Y-82919707D01*
X131378210Y-82919711D01*
X131290609Y-83050814D01*
X131290602Y-83050827D01*
X131230264Y-83196498D01*
X131230261Y-83196510D01*
X131199500Y-83351153D01*
X123180500Y-83351153D01*
X123180500Y-82817309D01*
X123200185Y-82750270D01*
X123216819Y-82729628D01*
X123817037Y-82129409D01*
X123834075Y-82192993D01*
X123899901Y-82307007D01*
X123992993Y-82400099D01*
X124107007Y-82465925D01*
X124170590Y-82482962D01*
X123607009Y-83046541D01*
X123607010Y-83046542D01*
X123642755Y-83072512D01*
X123642768Y-83072520D01*
X123818626Y-83162126D01*
X124006353Y-83223123D01*
X124201303Y-83254000D01*
X124398697Y-83254000D01*
X124593646Y-83223123D01*
X124781373Y-83162126D01*
X124957241Y-83072516D01*
X124992988Y-83046543D01*
X124992988Y-83046541D01*
X124429410Y-82482962D01*
X124492993Y-82465925D01*
X124607007Y-82400099D01*
X124700099Y-82307007D01*
X124765925Y-82192993D01*
X124782962Y-82129409D01*
X125346541Y-82692988D01*
X125346543Y-82692988D01*
X125372516Y-82657241D01*
X125462126Y-82481373D01*
X125523123Y-82293646D01*
X125554000Y-82098697D01*
X125554000Y-81901302D01*
X125553994Y-81901263D01*
X127545500Y-81901263D01*
X127545500Y-82098736D01*
X127576389Y-82293763D01*
X127637348Y-82481373D01*
X127637409Y-82481561D01*
X127726924Y-82657241D01*
X127727058Y-82657504D01*
X127843115Y-82817246D01*
X127982753Y-82956884D01*
X128106158Y-83046541D01*
X128142499Y-83072944D01*
X128318439Y-83162591D01*
X128443637Y-83203270D01*
X128506236Y-83223610D01*
X128701264Y-83254500D01*
X128701269Y-83254500D01*
X128898736Y-83254500D01*
X129070220Y-83227338D01*
X129093763Y-83223610D01*
X129281561Y-83162591D01*
X129457501Y-83072944D01*
X129547192Y-83007779D01*
X129617246Y-82956884D01*
X129617248Y-82956881D01*
X129617252Y-82956879D01*
X129756879Y-82817252D01*
X129756881Y-82817248D01*
X129756884Y-82817246D01*
X129820541Y-82729628D01*
X129872944Y-82657501D01*
X129962591Y-82481561D01*
X130023610Y-82293763D01*
X130028053Y-82265710D01*
X130054500Y-82098736D01*
X130054500Y-81901263D01*
X130023610Y-81706236D01*
X129967671Y-81534075D01*
X129962591Y-81518439D01*
X129872944Y-81342499D01*
X129847159Y-81307009D01*
X129756884Y-81182753D01*
X129617252Y-81043121D01*
X129579076Y-81015385D01*
X129579074Y-81015382D01*
X129457504Y-80927058D01*
X129457503Y-80927057D01*
X129457501Y-80927056D01*
X129445916Y-80921153D01*
X130199500Y-80921153D01*
X130199500Y-81078846D01*
X130230261Y-81233489D01*
X130230264Y-81233501D01*
X130290602Y-81379172D01*
X130290609Y-81379185D01*
X130378210Y-81510288D01*
X130378213Y-81510292D01*
X130489707Y-81621786D01*
X130489711Y-81621789D01*
X130620814Y-81709390D01*
X130620827Y-81709397D01*
X130766498Y-81769735D01*
X130766503Y-81769737D01*
X130921153Y-81800499D01*
X130921156Y-81800500D01*
X130921158Y-81800500D01*
X131078844Y-81800500D01*
X131078845Y-81800499D01*
X131233497Y-81769737D01*
X131379179Y-81709394D01*
X131510289Y-81621789D01*
X131621789Y-81510289D01*
X131709394Y-81379179D01*
X131769737Y-81233497D01*
X131772192Y-81221153D01*
X151999500Y-81221153D01*
X151999500Y-81378846D01*
X152030261Y-81533489D01*
X152030264Y-81533501D01*
X152090602Y-81679172D01*
X152090609Y-81679185D01*
X152178210Y-81810288D01*
X152178213Y-81810292D01*
X152289707Y-81921786D01*
X152289711Y-81921789D01*
X152420814Y-82009390D01*
X152420827Y-82009397D01*
X152557061Y-82065826D01*
X152566503Y-82069737D01*
X152712094Y-82098697D01*
X152721153Y-82100499D01*
X152721156Y-82100500D01*
X152721158Y-82100500D01*
X152878844Y-82100500D01*
X152878845Y-82100499D01*
X153033497Y-82069737D01*
X153179179Y-82009394D01*
X153310289Y-81921789D01*
X153421789Y-81810289D01*
X153509394Y-81679179D01*
X153569737Y-81533497D01*
X153600500Y-81378842D01*
X153600500Y-81221158D01*
X153600500Y-81221155D01*
X153600499Y-81221153D01*
X153572192Y-81078846D01*
X153569737Y-81066503D01*
X153560052Y-81043121D01*
X153509397Y-80920827D01*
X153509390Y-80920814D01*
X153421789Y-80789711D01*
X153421786Y-80789707D01*
X153310292Y-80678213D01*
X153310288Y-80678210D01*
X153179185Y-80590609D01*
X153179172Y-80590602D01*
X153033501Y-80530264D01*
X153033489Y-80530261D01*
X152878845Y-80499500D01*
X152878842Y-80499500D01*
X152721158Y-80499500D01*
X152721155Y-80499500D01*
X152566510Y-80530261D01*
X152566498Y-80530264D01*
X152420827Y-80590602D01*
X152420814Y-80590609D01*
X152289711Y-80678210D01*
X152289707Y-80678213D01*
X152178213Y-80789707D01*
X152178210Y-80789711D01*
X152090609Y-80920814D01*
X152090602Y-80920827D01*
X152030264Y-81066498D01*
X152030261Y-81066510D01*
X151999500Y-81221153D01*
X131772192Y-81221153D01*
X131772894Y-81217626D01*
X131778216Y-81190874D01*
X131778216Y-81190873D01*
X131800499Y-81078846D01*
X131800500Y-81078844D01*
X131800500Y-80921155D01*
X131800499Y-80921153D01*
X131774353Y-80789711D01*
X131769737Y-80766503D01*
X131769735Y-80766498D01*
X131709397Y-80620827D01*
X131709390Y-80620814D01*
X131621789Y-80489711D01*
X131621786Y-80489707D01*
X131510292Y-80378213D01*
X131510288Y-80378210D01*
X131379185Y-80290609D01*
X131379172Y-80290602D01*
X131233501Y-80230264D01*
X131233489Y-80230261D01*
X131078845Y-80199500D01*
X131078842Y-80199500D01*
X130921158Y-80199500D01*
X130921155Y-80199500D01*
X130766510Y-80230261D01*
X130766498Y-80230264D01*
X130620827Y-80290602D01*
X130620814Y-80290609D01*
X130489711Y-80378210D01*
X130489707Y-80378213D01*
X130378213Y-80489707D01*
X130378210Y-80489711D01*
X130290609Y-80620814D01*
X130290602Y-80620827D01*
X130230264Y-80766498D01*
X130230261Y-80766510D01*
X130199500Y-80921153D01*
X129445916Y-80921153D01*
X129281561Y-80837409D01*
X129281558Y-80837408D01*
X129093763Y-80776389D01*
X128898736Y-80745500D01*
X128898731Y-80745500D01*
X128701269Y-80745500D01*
X128701264Y-80745500D01*
X128506236Y-80776389D01*
X128318441Y-80837408D01*
X128142495Y-80927058D01*
X127982753Y-81043115D01*
X127843115Y-81182753D01*
X127727058Y-81342495D01*
X127637408Y-81518441D01*
X127576389Y-81706236D01*
X127545500Y-81901263D01*
X125553994Y-81901263D01*
X125523123Y-81706353D01*
X125462126Y-81518626D01*
X125372520Y-81342768D01*
X125372512Y-81342755D01*
X125346542Y-81307010D01*
X125346541Y-81307009D01*
X124782962Y-81870589D01*
X124765925Y-81807007D01*
X124700099Y-81692993D01*
X124607007Y-81599901D01*
X124492993Y-81534075D01*
X124429409Y-81517037D01*
X124992989Y-80953457D01*
X124957239Y-80927483D01*
X124781373Y-80837873D01*
X124593646Y-80776876D01*
X124398697Y-80746000D01*
X124201303Y-80746000D01*
X124006353Y-80776876D01*
X123818626Y-80837873D01*
X123642762Y-80927482D01*
X123642760Y-80927483D01*
X123607010Y-80953456D01*
X123607010Y-80953457D01*
X124170591Y-81517037D01*
X124107007Y-81534075D01*
X123992993Y-81599901D01*
X123899901Y-81692993D01*
X123834075Y-81807007D01*
X123817037Y-81870590D01*
X123216819Y-81270372D01*
X123202115Y-81243444D01*
X123185523Y-81217626D01*
X123184631Y-81211425D01*
X123183334Y-81209049D01*
X123180500Y-81182691D01*
X123180500Y-79721153D01*
X154399500Y-79721153D01*
X154399500Y-79878846D01*
X154430261Y-80033489D01*
X154430264Y-80033501D01*
X154490602Y-80179172D01*
X154490609Y-80179185D01*
X154578210Y-80310288D01*
X154578213Y-80310292D01*
X154689707Y-80421786D01*
X154689711Y-80421789D01*
X154820814Y-80509390D01*
X154820827Y-80509397D01*
X154966498Y-80569735D01*
X154966503Y-80569737D01*
X155121153Y-80600499D01*
X155121156Y-80600500D01*
X155121158Y-80600500D01*
X155278844Y-80600500D01*
X155278845Y-80600499D01*
X155433497Y-80569737D01*
X155579179Y-80509394D01*
X155710289Y-80421789D01*
X155821789Y-80310289D01*
X155909394Y-80179179D01*
X155969737Y-80033497D01*
X156000500Y-79878842D01*
X156000500Y-79721158D01*
X156000500Y-79721155D01*
X156000499Y-79721153D01*
X155979206Y-79614109D01*
X155969737Y-79566503D01*
X155969735Y-79566498D01*
X155909397Y-79420827D01*
X155909390Y-79420814D01*
X155821789Y-79289711D01*
X155821786Y-79289707D01*
X155710292Y-79178213D01*
X155710288Y-79178210D01*
X155591698Y-79098970D01*
X155579183Y-79090608D01*
X155579172Y-79090602D01*
X155433501Y-79030264D01*
X155433489Y-79030261D01*
X155285079Y-79000740D01*
X160025200Y-79000740D01*
X160025200Y-79209455D01*
X160057850Y-79415604D01*
X160122349Y-79614109D01*
X160176891Y-79721153D01*
X160217103Y-79800073D01*
X160339784Y-79968929D01*
X160487369Y-80116514D01*
X160656225Y-80239195D01*
X160744088Y-80283963D01*
X160842188Y-80333948D01*
X160842190Y-80333948D01*
X160842193Y-80333950D01*
X160948594Y-80368522D01*
X161040693Y-80398447D01*
X161143768Y-80414772D01*
X161246842Y-80431098D01*
X161246843Y-80431098D01*
X161455557Y-80431098D01*
X161455558Y-80431098D01*
X161661706Y-80398447D01*
X161860207Y-80333950D01*
X162046175Y-80239195D01*
X162215031Y-80116514D01*
X162362616Y-79968929D01*
X162485297Y-79800073D01*
X162580052Y-79614105D01*
X162644549Y-79415604D01*
X162677200Y-79209456D01*
X162677200Y-79000740D01*
X162644549Y-78794592D01*
X162580052Y-78596091D01*
X162580050Y-78596088D01*
X162580050Y-78596086D01*
X162485296Y-78410122D01*
X162362616Y-78241267D01*
X162215031Y-78093682D01*
X162046175Y-77971001D01*
X161860211Y-77876247D01*
X161661706Y-77811748D01*
X161483743Y-77783562D01*
X161455558Y-77779098D01*
X161246842Y-77779098D01*
X161222046Y-77783025D01*
X161040693Y-77811748D01*
X160842188Y-77876247D01*
X160656224Y-77971001D01*
X160487366Y-78093684D01*
X160339786Y-78241264D01*
X160217103Y-78410122D01*
X160122349Y-78596086D01*
X160057850Y-78794591D01*
X160025200Y-79000740D01*
X155285079Y-79000740D01*
X155278845Y-78999500D01*
X155278842Y-78999500D01*
X155121158Y-78999500D01*
X155121155Y-78999500D01*
X154966510Y-79030261D01*
X154966498Y-79030264D01*
X154820827Y-79090602D01*
X154820814Y-79090609D01*
X154689711Y-79178210D01*
X154689707Y-79178213D01*
X154578213Y-79289707D01*
X154578210Y-79289711D01*
X154490609Y-79420814D01*
X154490602Y-79420827D01*
X154430264Y-79566498D01*
X154430261Y-79566510D01*
X154399500Y-79721153D01*
X123180500Y-79721153D01*
X123180500Y-77061941D01*
X123200185Y-76994902D01*
X123252989Y-76949147D01*
X123322147Y-76939203D01*
X123385703Y-76968228D01*
X123392181Y-76974260D01*
X123489707Y-77071786D01*
X123489711Y-77071789D01*
X123620814Y-77159390D01*
X123620827Y-77159397D01*
X123766498Y-77219735D01*
X123766503Y-77219737D01*
X123921153Y-77250499D01*
X123921156Y-77250500D01*
X123921158Y-77250500D01*
X124078844Y-77250500D01*
X124078845Y-77250499D01*
X124233497Y-77219737D01*
X124379179Y-77159394D01*
X124510289Y-77071789D01*
X124621789Y-76960289D01*
X124709394Y-76829179D01*
X124769737Y-76683497D01*
X124800500Y-76528842D01*
X124800500Y-76371158D01*
X124800500Y-76371155D01*
X124800499Y-76371153D01*
X124769738Y-76216510D01*
X124769737Y-76216503D01*
X124730242Y-76121153D01*
X153099500Y-76121153D01*
X153099500Y-76278846D01*
X153130261Y-76433489D01*
X153130264Y-76433501D01*
X153190602Y-76579172D01*
X153190609Y-76579185D01*
X153278210Y-76710288D01*
X153278213Y-76710292D01*
X153389707Y-76821786D01*
X153389711Y-76821789D01*
X153520814Y-76909390D01*
X153520827Y-76909397D01*
X153662860Y-76968228D01*
X153666503Y-76969737D01*
X153821153Y-77000499D01*
X153821156Y-77000500D01*
X153821158Y-77000500D01*
X153978844Y-77000500D01*
X153978845Y-77000499D01*
X154133497Y-76969737D01*
X154279179Y-76909394D01*
X154410289Y-76821789D01*
X154521789Y-76710289D01*
X154609394Y-76579179D01*
X154669737Y-76433497D01*
X154700500Y-76278842D01*
X154700500Y-76121158D01*
X154700500Y-76121155D01*
X154700499Y-76121153D01*
X154669738Y-75966510D01*
X154669737Y-75966503D01*
X154664658Y-75954241D01*
X154609397Y-75820827D01*
X154609390Y-75820814D01*
X154521789Y-75689711D01*
X154521786Y-75689707D01*
X154410292Y-75578213D01*
X154410288Y-75578210D01*
X154294344Y-75500738D01*
X160025200Y-75500738D01*
X160025200Y-75709453D01*
X160057850Y-75915602D01*
X160122349Y-76114107D01*
X160206286Y-76278842D01*
X160217103Y-76300071D01*
X160339784Y-76468927D01*
X160487369Y-76616512D01*
X160656225Y-76739193D01*
X160744088Y-76783961D01*
X160842188Y-76833946D01*
X160842190Y-76833946D01*
X160842193Y-76833948D01*
X160948594Y-76868520D01*
X161040693Y-76898445D01*
X161109797Y-76909390D01*
X161246842Y-76931096D01*
X161246843Y-76931096D01*
X161455557Y-76931096D01*
X161455558Y-76931096D01*
X161661706Y-76898445D01*
X161860207Y-76833948D01*
X162046175Y-76739193D01*
X162215031Y-76616512D01*
X162362616Y-76468927D01*
X162485297Y-76300071D01*
X162580052Y-76114103D01*
X162644549Y-75915602D01*
X162677200Y-75709454D01*
X162677200Y-75500738D01*
X162644549Y-75294590D01*
X162580052Y-75096089D01*
X162580050Y-75096086D01*
X162580050Y-75096084D01*
X162485296Y-74910120D01*
X162362616Y-74741265D01*
X162215031Y-74593680D01*
X162046175Y-74470999D01*
X161860211Y-74376245D01*
X161661706Y-74311746D01*
X161483743Y-74283560D01*
X161455558Y-74279096D01*
X161246842Y-74279096D01*
X161222046Y-74283023D01*
X161040693Y-74311746D01*
X160842188Y-74376245D01*
X160656224Y-74470999D01*
X160487366Y-74593682D01*
X160339786Y-74741262D01*
X160217103Y-74910120D01*
X160122349Y-75096084D01*
X160057850Y-75294589D01*
X160025200Y-75500738D01*
X154294344Y-75500738D01*
X154279185Y-75490609D01*
X154279172Y-75490602D01*
X154133501Y-75430264D01*
X154133489Y-75430261D01*
X153978845Y-75399500D01*
X153978842Y-75399500D01*
X153821158Y-75399500D01*
X153821155Y-75399500D01*
X153666510Y-75430261D01*
X153666498Y-75430264D01*
X153520827Y-75490602D01*
X153520814Y-75490609D01*
X153389711Y-75578210D01*
X153389707Y-75578213D01*
X153278213Y-75689707D01*
X153278210Y-75689711D01*
X153190609Y-75820814D01*
X153190602Y-75820827D01*
X153130264Y-75966498D01*
X153130261Y-75966510D01*
X153099500Y-76121153D01*
X124730242Y-76121153D01*
X124727322Y-76114103D01*
X124709397Y-76070827D01*
X124709390Y-76070814D01*
X124621789Y-75939711D01*
X124621786Y-75939707D01*
X124510292Y-75828213D01*
X124510288Y-75828210D01*
X124379185Y-75740609D01*
X124379172Y-75740602D01*
X124233501Y-75680264D01*
X124233489Y-75680261D01*
X124078845Y-75649500D01*
X124078842Y-75649500D01*
X123921158Y-75649500D01*
X123921155Y-75649500D01*
X123766510Y-75680261D01*
X123766498Y-75680264D01*
X123620827Y-75740602D01*
X123620814Y-75740609D01*
X123489711Y-75828210D01*
X123489707Y-75828213D01*
X123392181Y-75925740D01*
X123330858Y-75959225D01*
X123261166Y-75954241D01*
X123205233Y-75912369D01*
X123180816Y-75846905D01*
X123180500Y-75838059D01*
X123180500Y-73624000D01*
X123200185Y-73556961D01*
X123252989Y-73511206D01*
X123304500Y-73500000D01*
X165155500Y-73500000D01*
X165222539Y-73519685D01*
G37*
G04 #@! TD.AperFunction*
M02*
