G04 #@! TF.GenerationSoftware,KiCad,Pcbnew,9.0.2*
G04 #@! TF.CreationDate,2025-07-03T10:04:56+02:00*
G04 #@! TF.ProjectId,Capteur_courant_IoT,43617074-6575-4725-9f63-6f7572616e74,rev?*
G04 #@! TF.SameCoordinates,Original*
G04 #@! TF.FileFunction,Soldermask,Bot*
G04 #@! TF.FilePolarity,Negative*
%FSLAX46Y46*%
G04 Gerber Fmt 4.6, Leading zero omitted, Abs format (unit mm)*
G04 Created by KiCad (PCBNEW 9.0.2) date 2025-07-03 10:04:56*
%MOMM*%
%LPD*%
G01*
G04 APERTURE LIST*
G04 Aperture macros list*
%AMRoundRect*
0 Rectangle with rounded corners*
0 $1 Rounding radius*
0 $2 $3 $4 $5 $6 $7 $8 $9 X,Y pos of 4 corners*
0 Add a 4 corners polygon primitive as box body*
4,1,4,$2,$3,$4,$5,$6,$7,$8,$9,$2,$3,0*
0 Add four circle primitives for the rounded corners*
1,1,$1+$1,$2,$3*
1,1,$1+$1,$4,$5*
1,1,$1+$1,$6,$7*
1,1,$1+$1,$8,$9*
0 Add four rect primitives between the rounded corners*
20,1,$1+$1,$2,$3,$4,$5,0*
20,1,$1+$1,$4,$5,$6,$7,0*
20,1,$1+$1,$6,$7,$8,$9,0*
20,1,$1+$1,$8,$9,$2,$3,0*%
G04 Aperture macros list end*
%ADD10C,0.600000*%
%ADD11C,5.600000*%
%ADD12R,1.700000X1.700000*%
%ADD13C,1.700000*%
%ADD14RoundRect,0.102000X0.754000X-0.754000X0.754000X0.754000X-0.754000X0.754000X-0.754000X-0.754000X0*%
%ADD15C,1.712000*%
%ADD16C,1.651000*%
%ADD17RoundRect,0.102000X-0.754000X0.754000X-0.754000X-0.754000X0.754000X-0.754000X0.754000X0.754000X0*%
%ADD18C,0.650000*%
%ADD19O,2.304000X1.204000*%
%ADD20O,2.004000X1.204000*%
G04 APERTURE END LIST*
D10*
X139600000Y-81560000D03*
X139600000Y-82960000D03*
X140300000Y-80860000D03*
X140300000Y-82260000D03*
X140300000Y-83660000D03*
X141000000Y-81560000D03*
X141000000Y-82960000D03*
X141700000Y-80860000D03*
X141700000Y-82260000D03*
X141700000Y-83660000D03*
X142400000Y-81560000D03*
X142400000Y-82960000D03*
D11*
X127000000Y-95000000D03*
X127000000Y-123000000D03*
D12*
X142180000Y-96000000D03*
D13*
X139640000Y-96000000D03*
X137100000Y-96000000D03*
X134560000Y-96000000D03*
D14*
X128412500Y-106750000D03*
D15*
X128412500Y-100250000D03*
X132912500Y-106750000D03*
X132912500Y-100250000D03*
D11*
X161500000Y-95000000D03*
D16*
X161451200Y-120587400D03*
X161451200Y-124087402D03*
D17*
X139887500Y-100200000D03*
D15*
X139887500Y-106700000D03*
X135387500Y-100200000D03*
X135387500Y-106700000D03*
D14*
X124300000Y-88500000D03*
D15*
X124300000Y-82000000D03*
X128800000Y-88500000D03*
X128800000Y-82000000D03*
D16*
X161351200Y-75605096D03*
X161351200Y-79105098D03*
D12*
X126000000Y-110190000D03*
D13*
X126000000Y-112730000D03*
X126000000Y-115270000D03*
X126000000Y-117810000D03*
D18*
X158920000Y-115667500D03*
X158920000Y-109887500D03*
D19*
X158420000Y-117097500D03*
X158420000Y-108457500D03*
D20*
X162600000Y-117097500D03*
X162600000Y-108457500D03*
M02*
